<?xml version="1.0" encoding="UTF-8"?>
<svg width="80px" height="80px" viewBox="0 0 80 80" version="1.1" xmlns="http://www.w3.org/2000/svg" xmlns:xlink="http://www.w3.org/1999/xlink">
    <!-- Generator: Sketch 64 (93537) - https://sketch.com -->
    <title>Icons / Illustrative / 0-eur</title>
    <desc>Created with Sketch.</desc>
    <g id="Icons-/-Illustrative-/-0-eur" stroke="none" stroke-width="1" fill="none" fill-rule="evenodd">
        <g id="0-eur">
            <g id="Icons-/-Illustrative-/-Illustrative-/-Oval" stroke="#3B3B47">
                <circle id="Oval" cx="40" cy="40" r="39.5"></circle>
            </g>
            <path d="M31.16,51.36 C32.66,51.36 33.89,51.035 34.85,50.385 C35.81,49.735 36.575,48.895 37.145,47.865 C37.715,46.835 38.11,45.685 38.33,44.415 C38.55,43.145 38.66,41.89 38.66,40.65 C38.66,39.41 38.55,38.155 38.33,36.885 C38.11,35.615 37.715,34.465 37.145,33.435 C36.575,32.405 35.81,31.565 34.85,30.915 C33.89,30.265 32.66,29.94 31.16,29.94 C29.66,29.94 28.43,30.265 27.47,30.915 C26.51,31.565 25.745,32.405 25.175,33.435 C24.605,34.465 24.21,35.615 23.99,36.885 C23.77,38.155 23.66,39.41 23.66,40.65 C23.66,41.89 23.77,43.145 23.99,44.415 C24.21,45.685 24.605,46.835 25.175,47.865 C25.745,48.895 26.51,49.735 27.47,50.385 C28.43,51.035 29.66,51.36 31.16,51.36 Z M31.16,50.37 C29.86,50.37 28.8,50.06 27.98,49.44 C27.16,48.82 26.515,48.03 26.045,47.07 C25.575,46.11 25.25,45.06 25.07,43.92 C24.89,42.78 24.8,41.69 24.8,40.65 C24.8,39.61 24.89,38.52 25.07,37.38 C25.25,36.24 25.575,35.19 26.045,34.23 C26.515,33.27 27.16,32.48 27.98,31.86 C28.8,31.24 29.86,30.93 31.16,30.93 C32.44,30.93 33.495,31.24 34.325,31.86 C35.155,32.48 35.805,33.27 36.275,34.23 C36.745,35.19 37.07,36.24 37.25,37.38 C37.43,38.52 37.52,39.61 37.52,40.65 C37.52,41.69 37.43,42.78 37.25,43.92 C37.07,45.06 36.745,46.11 36.275,47.07 C35.805,48.03 35.155,48.82 34.325,49.44 C33.495,50.06 32.44,50.37 31.16,50.37 Z M49.58,51.36 C50.16,51.36 50.76,51.305 51.38,51.195 C52,51.085 52.57,50.92 53.09,50.7 C53.53,50.54 53.915,50.35 54.245,50.13 C54.575,49.91 54.88,49.67 55.16,49.41 L55.16,49.41 L55.16,48.03 C54.74,48.51 54.31,48.895 53.87,49.185 C53.43,49.475 53.01,49.7 52.61,49.86 C52.15,50.04 51.67,50.17 51.17,50.25 C50.67,50.33 50.19,50.37 49.73,50.37 C49.39,50.37 49.01,50.345 48.59,50.295 C48.17,50.245 47.735,50.135 47.285,49.965 C46.835,49.795 46.38,49.535 45.92,49.185 C45.46,48.835 45.03,48.36 44.63,47.76 C44.15,47.06 43.78,46.28 43.52,45.42 C43.26,44.56 43.09,43.74 43.01,42.96 L43.01,42.96 L50.93,42.96 L51.38,41.97 L42.89,41.97 C42.87,41.75 42.855,41.525 42.845,41.295 C42.835,41.065 42.83,40.83 42.83,40.59 C42.83,40.35 42.835,40.105 42.845,39.855 C42.855,39.605 42.87,39.35 42.89,39.09 L42.89,39.09 L52.49,39.09 L52.94,38.1 L42.98,38.1 C43.02,37.66 43.09,37.19 43.19,36.69 C43.29,36.19 43.43,35.695 43.61,35.205 C43.79,34.715 44.005,34.245 44.255,33.795 C44.505,33.345 44.8,32.95 45.14,32.61 C45.54,32.19 45.96,31.87 46.4,31.65 C46.84,31.43 47.26,31.265 47.66,31.155 C48.06,31.045 48.43,30.98 48.77,30.96 C49.11,30.94 49.39,30.93 49.61,30.93 C50.09,30.93 50.61,30.975 51.17,31.065 C51.73,31.155 52.29,31.38 52.85,31.74 C53.19,31.96 53.545,32.275 53.915,32.685 C54.285,33.095 54.57,33.63 54.77,34.29 L54.77,34.29 L55.4,33.15 C55.16,32.57 54.86,32.095 54.5,31.725 C54.14,31.355 53.78,31.06 53.42,30.84 C52.82,30.46 52.19,30.215 51.53,30.105 C50.87,29.995 50.23,29.94 49.61,29.94 C49.33,29.94 49,29.955 48.62,29.985 C48.24,30.015 47.83,30.085 47.39,30.195 C46.95,30.305 46.495,30.475 46.025,30.705 C45.555,30.935 45.09,31.25 44.63,31.65 C44.17,32.05 43.77,32.51 43.43,33.03 C43.09,33.55 42.81,34.095 42.59,34.665 C42.37,35.235 42.195,35.815 42.065,36.405 C41.935,36.995 41.85,37.56 41.81,38.1 L41.81,38.1 L40.31,38.1 L39.86,39.09 L41.75,39.09 C41.65,39.99 41.65,40.95 41.75,41.97 L41.75,41.97 L40.31,41.97 L39.86,42.96 L41.81,42.96 C41.89,43.88 42.085,44.83 42.395,45.81 C42.705,46.79 43.13,47.66 43.67,48.42 C44.33,49.38 45.16,50.11 46.16,50.61 C47.16,51.11 48.3,51.36 49.58,51.36 Z" id="0€" fill="#3B3B47" fill-rule="nonzero"></path>
        </g>
    </g>
</svg>