<?xml version="1.0" encoding="UTF-8"?>
<svg width="80px" height="80px" viewBox="0 0 80 80" version="1.1" xmlns="http://www.w3.org/2000/svg" xmlns:xlink="http://www.w3.org/1999/xlink">
    <!-- Generator: Sketch 64 (93537) - https://sketch.com -->
    <title>Icons / Illustrative / 100</title>
    <desc>Created with Sketch.</desc>
    <g id="Icons-/-Illustrative-/-100" stroke="none" stroke-width="1" fill="none" fill-rule="evenodd">
        <g id="Icons-/-Illustrative-/-Illustrative-/-Oval" stroke="#3B3B47">
            <circle id="Oval" cx="40" cy="40" r="39.5"></circle>
        </g>
        <path d="M23.41,51 L23.41,30.3 L22.39,30.3 C21.77,31.38 20.97,32.25 19.99,32.91 C19.01,33.57 17.92,33.99 16.72,34.17 L16.72,34.17 L16.72,35.16 C17.76,35.06 18.76,34.79 19.72,34.35 C20.68,33.91 21.53,33.3 22.27,32.52 L22.27,32.52 L22.27,51 L23.41,51 Z M37.5,51.36 C39,51.36 40.23,51.035 41.19,50.385 C42.15,49.735 42.915,48.895 43.485,47.865 C44.055,46.835 44.45,45.685 44.67,44.415 C44.89,43.145 45,41.89 45,40.65 C45,39.41 44.89,38.155 44.67,36.885 C44.45,35.615 44.055,34.465 43.485,33.435 C42.915,32.405 42.15,31.565 41.19,30.915 C40.23,30.265 39,29.94 37.5,29.94 C36,29.94 34.77,30.265 33.81,30.915 C32.85,31.565 32.085,32.405 31.515,33.435 C30.945,34.465 30.55,35.615 30.33,36.885 C30.11,38.155 30,39.41 30,40.65 C30,41.89 30.11,43.145 30.33,44.415 C30.55,45.685 30.945,46.835 31.515,47.865 C32.085,48.895 32.85,49.735 33.81,50.385 C34.77,51.035 36,51.36 37.5,51.36 Z M37.5,50.37 C36.2,50.37 35.14,50.06 34.32,49.44 C33.5,48.82 32.855,48.03 32.385,47.07 C31.915,46.11 31.59,45.06 31.41,43.92 C31.23,42.78 31.14,41.69 31.14,40.65 C31.14,39.61 31.23,38.52 31.41,37.38 C31.59,36.24 31.915,35.19 32.385,34.23 C32.855,33.27 33.5,32.48 34.32,31.86 C35.14,31.24 36.2,30.93 37.5,30.93 C38.78,30.93 39.835,31.24 40.665,31.86 C41.495,32.48 42.145,33.27 42.615,34.23 C43.085,35.19 43.41,36.24 43.59,37.38 C43.77,38.52 43.86,39.61 43.86,40.65 C43.86,41.69 43.77,42.78 43.59,43.92 C43.41,45.06 43.085,46.11 42.615,47.07 C42.145,48.03 41.495,48.82 40.665,49.44 C39.835,50.06 38.78,50.37 37.5,50.37 Z M54.18,51.36 C55.68,51.36 56.91,51.035 57.87,50.385 C58.83,49.735 59.595,48.895 60.165,47.865 C60.735,46.835 61.13,45.685 61.35,44.415 C61.57,43.145 61.68,41.89 61.68,40.65 C61.68,39.41 61.57,38.155 61.35,36.885 C61.13,35.615 60.735,34.465 60.165,33.435 C59.595,32.405 58.83,31.565 57.87,30.915 C56.91,30.265 55.68,29.94 54.18,29.94 C52.68,29.94 51.45,30.265 50.49,30.915 C49.53,31.565 48.765,32.405 48.195,33.435 C47.625,34.465 47.23,35.615 47.01,36.885 C46.79,38.155 46.68,39.41 46.68,40.65 C46.68,41.89 46.79,43.145 47.01,44.415 C47.23,45.685 47.625,46.835 48.195,47.865 C48.765,48.895 49.53,49.735 50.49,50.385 C51.45,51.035 52.68,51.36 54.18,51.36 Z M54.18,50.37 C52.88,50.37 51.82,50.06 51,49.44 C50.18,48.82 49.535,48.03 49.065,47.07 C48.595,46.11 48.27,45.06 48.09,43.92 C47.91,42.78 47.82,41.69 47.82,40.65 C47.82,39.61 47.91,38.52 48.09,37.38 C48.27,36.24 48.595,35.19 49.065,34.23 C49.535,33.27 50.18,32.48 51,31.86 C51.82,31.24 52.88,30.93 54.18,30.93 C55.46,30.93 56.515,31.24 57.345,31.86 C58.175,32.48 58.825,33.27 59.295,34.23 C59.765,35.19 60.09,36.24 60.27,37.38 C60.45,38.52 60.54,39.61 60.54,40.65 C60.54,41.69 60.45,42.78 60.27,43.92 C60.09,45.06 59.765,46.11 59.295,47.07 C58.825,48.03 58.175,48.82 57.345,49.44 C56.515,50.06 55.46,50.37 54.18,50.37 Z" id="100" fill="#3B3B47" fill-rule="nonzero"></path>
    </g>
</svg>