<?xml version="1.0" encoding="UTF-8"?>
<svg width="80px" height="80px" viewBox="0 0 80 80" version="1.1" xmlns="http://www.w3.org/2000/svg" xmlns:xlink="http://www.w3.org/1999/xlink">
    <!-- Generator: Sketch 64 (93537) - https://sketch.com -->
    <title>Icons / Illustrative / 15</title>
    <desc>Created with Sketch.</desc>
    <g id="Icons-/-Illustrative-/-15" stroke="none" stroke-width="1" fill="none" fill-rule="evenodd">
        <g id="Icons-/-Illustrative-/-Illustrative-/-Oval" stroke="#3B3B47">
            <circle id="Oval" cx="40" cy="40" r="39.5"></circle>
        </g>
        <path d="M32.75,51 L32.75,30.3 L31.73,30.3 C31.11,31.38 30.31,32.25 29.33,32.91 C28.35,33.57 27.26,33.99 26.06,34.17 L26.06,34.17 L26.06,35.16 C27.1,35.06 28.1,34.79 29.06,34.35 C30.02,33.91 30.87,33.3 31.61,32.52 L31.61,32.52 L31.61,51 L32.75,51 Z M46.72,51.36 C47.76,51.36 48.71,51.18 49.57,50.82 C50.43,50.46 51.17,49.955 51.79,49.305 C52.41,48.655 52.89,47.89 53.23,47.01 C53.57,46.13 53.74,45.18 53.74,44.16 C53.74,43.14 53.565,42.195 53.215,41.325 C52.865,40.455 52.38,39.71 51.76,39.09 C51.14,38.47 50.4,37.985 49.54,37.635 C48.68,37.285 47.74,37.11 46.72,37.11 C45.68,37.11 44.715,37.315 43.825,37.725 C42.935,38.135 42.19,38.76 41.59,39.6 L41.59,39.6 L41.53,39.54 L43.3,31.29 L52.87,31.29 L52.87,30.3 L42.4,30.3 L40.24,41.01 L41.41,41.01 C42.07,40.05 42.82,39.325 43.66,38.835 C44.5,38.345 45.52,38.1 46.72,38.1 C47.56,38.1 48.34,38.26 49.06,38.58 C49.78,38.9 50.405,39.33 50.935,39.87 C51.465,40.41 51.875,41.05 52.165,41.79 C52.455,42.53 52.6,43.32 52.6,44.16 C52.6,45 52.46,45.8 52.18,46.56 C51.9,47.32 51.5,47.98 50.98,48.54 C50.46,49.1 49.84,49.545 49.12,49.875 C48.4,50.205 47.6,50.37 46.72,50.37 C45.88,50.37 45.095,50.235 44.365,49.965 C43.635,49.695 43,49.31 42.46,48.81 C41.92,48.31 41.495,47.71 41.185,47.01 C40.875,46.31 40.73,45.53 40.75,44.67 L40.75,44.67 L39.61,44.67 C39.55,45.71 39.7,46.645 40.06,47.475 C40.42,48.305 40.93,49.005 41.59,49.575 C42.25,50.145 43.02,50.585 43.9,50.895 C44.78,51.205 45.72,51.36 46.72,51.36 Z" id="15" fill="#3B3B47" fill-rule="nonzero"></path>
    </g>
</svg>