<?xml version="1.0" encoding="UTF-8"?>
<svg width="80px" height="80px" viewBox="0 0 80 80" version="1.1" xmlns="http://www.w3.org/2000/svg" xmlns:xlink="http://www.w3.org/1999/xlink">
    <!-- Generator: Sketch 64 (93537) - https://sketch.com -->
    <title>Icons / Illustrative / 2</title>
    <desc>Created with Sketch.</desc>
    <g id="Icons-/-Illustrative-/-2" stroke="none" stroke-width="1" fill="none" fill-rule="evenodd">
        <g id="Icons-/-Illustrative-/-Illustrative-/-Oval" stroke="#3B3B47">
            <circle id="Oval" cx="40" cy="40" r="39.5"></circle>
        </g>
        <path d="M46.84,51 L46.84,49.86 L34.48,49.86 C34.56,49 34.915,48.215 35.545,47.505 C36.175,46.795 36.935,46.115 37.825,45.465 C38.715,44.815 39.665,44.16 40.675,43.5 C41.685,42.84 42.625,42.13 43.495,41.37 C44.365,40.61 45.085,39.765 45.655,38.835 C46.225,37.905 46.51,36.83 46.51,35.61 C46.51,34.65 46.34,33.815 46,33.105 C45.66,32.395 45.2,31.805 44.62,31.335 C44.04,30.865 43.36,30.515 42.58,30.285 C41.8,30.055 40.97,29.94 40.09,29.94 C38.03,29.94 36.455,30.535 35.365,31.725 C34.275,32.915 33.67,34.77 33.55,37.29 L33.55,37.29 L34.69,37.29 C34.69,36.39 34.805,35.555 35.035,34.785 C35.265,34.015 35.61,33.345 36.07,32.775 C36.53,32.205 37.11,31.755 37.81,31.425 C38.51,31.095 39.33,30.93 40.27,30.93 C40.95,30.93 41.595,31.04 42.205,31.26 C42.815,31.48 43.355,31.795 43.825,32.205 C44.295,32.615 44.67,33.105 44.95,33.675 C45.23,34.245 45.37,34.88 45.37,35.58 C45.37,36.46 45.2,37.245 44.86,37.935 C44.52,38.625 44.065,39.26 43.495,39.84 C42.925,40.42 42.28,40.965 41.56,41.475 C40.84,41.985 40.11,42.49 39.37,42.99 C38.61,43.49 37.865,44.01 37.135,44.55 C36.405,45.09 35.745,45.675 35.155,46.305 C34.565,46.935 34.08,47.635 33.7,48.405 C33.32,49.175 33.1,50.04 33.04,51 L33.04,51 L46.84,51 Z" id="2" fill="#3B3B47" fill-rule="nonzero"></path>
    </g>
</svg>