<?xml version="1.0" encoding="UTF-8"?>
<svg width="80px" height="80px" viewBox="0 0 80 80" version="1.1" xmlns="http://www.w3.org/2000/svg" xmlns:xlink="http://www.w3.org/1999/xlink">
    <!-- Generator: Sketch 64 (93537) - https://sketch.com -->
    <title>Icons / Illustrative / 3</title>
    <desc>Created with Sketch.</desc>
    <g id="Icons-/-Illustrative-/-3" stroke="none" stroke-width="1" fill="none" fill-rule="evenodd">
        <g id="Icons-/-Illustrative-/-Illustrative-/-Oval" stroke="#3B3B47">
            <circle id="Oval" cx="40" cy="40" r="39.5"></circle>
        </g>
        <path d="M39.91,51.36 C40.87,51.36 41.78,51.235 42.64,50.985 C43.5,50.735 44.25,50.355 44.89,49.845 C45.53,49.335 46.04,48.7 46.42,47.94 C46.8,47.18 46.99,46.29 46.99,45.27 C46.99,44.57 46.885,43.915 46.675,43.305 C46.465,42.695 46.165,42.155 45.775,41.685 C45.385,41.215 44.91,40.83 44.35,40.53 C43.79,40.23 43.16,40.04 42.46,39.96 L42.46,39.96 L42.46,39.9 C43.06,39.82 43.61,39.645 44.11,39.375 C44.61,39.105 45.04,38.76 45.4,38.34 C45.76,37.92 46.035,37.44 46.225,36.9 C46.415,36.36 46.51,35.78 46.51,35.16 C46.51,34.24 46.32,33.45 45.94,32.79 C45.56,32.13 45.065,31.59 44.455,31.17 C43.845,30.75 43.145,30.44 42.355,30.24 C41.565,30.04 40.75,29.94 39.91,29.94 C38.89,29.94 37.97,30.11 37.15,30.45 C36.33,30.79 35.63,31.26 35.05,31.86 C34.47,32.46 34.025,33.185 33.715,34.035 C33.405,34.885 33.25,35.82 33.25,36.84 L33.25,36.84 L34.39,36.84 C34.43,35.98 34.57,35.19 34.81,34.47 C35.05,33.75 35.395,33.13 35.845,32.61 C36.295,32.09 36.86,31.68 37.54,31.38 C38.22,31.08 39.01,30.93 39.91,30.93 C40.53,30.93 41.165,31.015 41.815,31.185 C42.465,31.355 43.055,31.61 43.585,31.95 C44.115,32.29 44.545,32.73 44.875,33.27 C45.205,33.81 45.37,34.44 45.37,35.16 C45.37,36.06 45.175,36.8 44.785,37.38 C44.395,37.96 43.89,38.415 43.27,38.745 C42.65,39.075 41.955,39.295 41.185,39.405 C40.415,39.515 39.65,39.55 38.89,39.51 L38.89,39.51 L38.89,40.5 C39.75,40.44 40.595,40.47 41.425,40.59 C42.255,40.71 43,40.95 43.66,41.31 C44.32,41.67 44.85,42.175 45.25,42.825 C45.65,43.475 45.85,44.29 45.85,45.27 C45.85,46.09 45.685,46.82 45.355,47.46 C45.025,48.1 44.585,48.635 44.035,49.065 C43.485,49.495 42.85,49.82 42.13,50.04 C41.41,50.26 40.67,50.37 39.91,50.37 C38.95,50.37 38.09,50.225 37.33,49.935 C36.57,49.645 35.93,49.235 35.41,48.705 C34.89,48.175 34.495,47.525 34.225,46.755 C33.955,45.985 33.84,45.12 33.88,44.16 L33.88,44.16 L32.74,44.16 C32.68,45.32 32.805,46.345 33.115,47.235 C33.425,48.125 33.895,48.875 34.525,49.485 C35.155,50.095 35.925,50.56 36.835,50.88 C37.745,51.2 38.77,51.36 39.91,51.36 Z" id="3" fill="#3B3B47" fill-rule="nonzero"></path>
    </g>
</svg>