<?xml version="1.0" encoding="UTF-8"?>
<svg width="80px" height="80px" viewBox="0 0 80 80" version="1.1" xmlns="http://www.w3.org/2000/svg" xmlns:xlink="http://www.w3.org/1999/xlink">
    <!-- Generator: Sketch 64 (93537) - https://sketch.com -->
    <title>Icons / Illustrative / 50</title>
    <desc>Created with Sketch.</desc>
    <g id="Icons-/-Illustrative-/-50" stroke="none" stroke-width="1" fill="none" fill-rule="evenodd">
        <g id="Icons-/-Illustrative-/-Illustrative-/-Oval" stroke="#3B3B47">
            <circle id="Oval" cx="40" cy="40" r="39.5"></circle>
        </g>
        <path d="M31.54,51.72 C32.58,51.72 33.53,51.54 34.39,51.18 C35.25,50.82 35.99,50.315 36.61,49.665 C37.23,49.015 37.71,48.25 38.05,47.37 C38.39,46.49 38.56,45.54 38.56,44.52 C38.56,43.5 38.385,42.555 38.035,41.685 C37.685,40.815 37.2,40.07 36.58,39.45 C35.96,38.83 35.22,38.345 34.36,37.995 C33.5,37.645 32.56,37.47 31.54,37.47 C30.5,37.47 29.535,37.675 28.645,38.085 C27.755,38.495 27.01,39.12 26.41,39.96 L26.41,39.96 L26.35,39.9 L28.12,31.65 L37.69,31.65 L37.69,30.66 L27.22,30.66 L25.06,41.37 L26.23,41.37 C26.89,40.41 27.64,39.685 28.48,39.195 C29.32,38.705 30.34,38.46 31.54,38.46 C32.38,38.46 33.16,38.62 33.88,38.94 C34.6,39.26 35.225,39.69 35.755,40.23 C36.285,40.77 36.695,41.41 36.985,42.15 C37.275,42.89 37.42,43.68 37.42,44.52 C37.42,45.36 37.28,46.16 37,46.92 C36.72,47.68 36.32,48.34 35.8,48.9 C35.28,49.46 34.66,49.905 33.94,50.235 C33.22,50.565 32.42,50.73 31.54,50.73 C30.7,50.73 29.915,50.595 29.185,50.325 C28.455,50.055 27.82,49.67 27.28,49.17 C26.74,48.67 26.315,48.07 26.005,47.37 C25.695,46.67 25.55,45.89 25.57,45.03 L25.57,45.03 L24.43,45.03 C24.37,46.07 24.52,47.005 24.88,47.835 C25.24,48.665 25.75,49.365 26.41,49.935 C27.07,50.505 27.84,50.945 28.72,51.255 C29.6,51.565 30.54,51.72 31.54,51.72 Z M48.34,51.72 C49.84,51.72 51.07,51.395 52.03,50.745 C52.99,50.095 53.755,49.255 54.325,48.225 C54.895,47.195 55.29,46.045 55.51,44.775 C55.73,43.505 55.84,42.25 55.84,41.01 C55.84,39.77 55.73,38.515 55.51,37.245 C55.29,35.975 54.895,34.825 54.325,33.795 C53.755,32.765 52.99,31.925 52.03,31.275 C51.07,30.625 49.84,30.3 48.34,30.3 C46.84,30.3 45.61,30.625 44.65,31.275 C43.69,31.925 42.925,32.765 42.355,33.795 C41.785,34.825 41.39,35.975 41.17,37.245 C40.95,38.515 40.84,39.77 40.84,41.01 C40.84,42.25 40.95,43.505 41.17,44.775 C41.39,46.045 41.785,47.195 42.355,48.225 C42.925,49.255 43.69,50.095 44.65,50.745 C45.61,51.395 46.84,51.72 48.34,51.72 Z M48.34,50.73 C47.04,50.73 45.98,50.42 45.16,49.8 C44.34,49.18 43.695,48.39 43.225,47.43 C42.755,46.47 42.43,45.42 42.25,44.28 C42.07,43.14 41.98,42.05 41.98,41.01 C41.98,39.97 42.07,38.88 42.25,37.74 C42.43,36.6 42.755,35.55 43.225,34.59 C43.695,33.63 44.34,32.84 45.16,32.22 C45.98,31.6 47.04,31.29 48.34,31.29 C49.62,31.29 50.675,31.6 51.505,32.22 C52.335,32.84 52.985,33.63 53.455,34.59 C53.925,35.55 54.25,36.6 54.43,37.74 C54.61,38.88 54.7,39.97 54.7,41.01 C54.7,42.05 54.61,43.14 54.43,44.28 C54.25,45.42 53.925,46.47 53.455,47.43 C52.985,48.39 52.335,49.18 51.505,49.8 C50.675,50.42 49.62,50.73 48.34,50.73 Z" id="50" fill="#3B3B47" fill-rule="nonzero"></path>
    </g>
</svg>