<?xml version="1.0" encoding="UTF-8"?>
<svg width="135px" height="40px" viewBox="0 0 135 40" version="1.1" xmlns="http://www.w3.org/2000/svg" xmlns:xlink="http://www.w3.org/1999/xlink">
    <!-- Generator: Sketch 64 (93537) - https://sketch.com -->
    <title>app-store-et</title>
    <desc>Created with Sketch.</desc>
    <g id="Symbols" stroke="none" stroke-width="1" fill="none" fill-rule="evenodd">
        <g id="Nav-/-Button-/-ios" fill-rule="nonzero">
            <g id="app-store-et">
                <g id="Group" fill="#000000">
                    <rect id="Rectangle-path" x="0" y="0" width="135" height="40" rx="5"></rect>
                </g>
                <g id="Group" transform="translate(8.000000, 7.000000)" fill="#FFFFFF">
                    <g id="_Group_">
                        <g id="_Group_2">
                            <g id="_Group_3">
                                <path d="M15.7718,12.30068 C15.793657,10.6042091 16.6830429,9.03718611 18.12836,8.14862 C17.2124326,6.84051277 15.733312,6.04087835 14.1372,5.99094 C12.45796,5.81468 10.83001,6.99577 9.9743,6.99577 C9.10203,6.99577 7.78453,6.00844 6.3658,6.03763 C4.49912126,6.09793842 2.80105717,7.13352548 1.89288,8.7655 C-0.04112,12.11392 1.40147,17.03497 3.25408,19.74158 C4.18098,21.06693 5.26426,22.54738 6.68171,22.49488 C8.06877,22.43735 8.58681,21.6104 10.26111,21.6104 C11.91987,21.6104 12.4059,22.49488 13.85211,22.4615 C15.34049,22.43734 16.27824,21.13026 17.17262,19.79236 C17.8385821,18.8479971 18.351036,17.8042735 18.691,16.69985 C16.9232722,15.952169 15.7738564,14.2200247 15.7718,12.30068 Z" id="_Path_"></path>
                                <path d="M13.04017,4.21089 C13.8516966,3.23668191 14.251505,1.98450245 14.15469,0.72027 C12.9148578,0.850490487 11.7696002,1.44304968 10.94711,2.37988 C10.1349387,3.30418903 9.72349463,4.51343268 9.8034,5.74127 C11.0598568,5.75420677 12.2528361,5.19015322 13.04017,4.21089 Z" id="_Path_2"></path>
                            </g>
                        </g>
                    </g>
                    <g id="_Group_4" transform="translate(26.000000, 0.000000)">
                        <g id="Group">
                            <polygon id="Path" points="4.39552 6.70166 0.67384 6.70166 0.67384 0.73486 1.6006 0.73486 1.6006 5.84961 4.39552 5.84961"></polygon>
                            <path d="M5.332,5.42822 C5.332,4.61767 5.93552,4.15039 7.0068,4.08398 L8.22653,4.01367 L8.22653,3.625 C8.22653,3.14941 7.91208,2.88086 7.30466,2.88086 C6.80857,2.88086 6.46482,3.06299 6.36618,3.38135 L5.50583,3.38135 C5.59665,2.60791 6.32419,2.11182 7.34567,2.11182 C8.47458,2.11182 9.1113,2.67382 9.1113,3.625 L9.1113,6.70166 L8.25583,6.70166 L8.25583,6.06885 L8.18552,6.06885 C7.8949686,6.53097633 7.37827364,6.80106323 6.83298,6.77585 C6.45071612,6.81561181 6.06947115,6.69181066 5.78349581,6.43505244 C5.49752047,6.17829423 5.33350608,5.81254331 5.332,5.42822 L5.332,5.42822 Z M8.22653,5.04345 L8.22653,4.667 L7.127,4.7373 C6.50688,4.7788 6.22563,4.98974 6.22563,5.38671 C6.22563,5.79198 6.57719,6.02782 7.06063,6.02782 C7.34680795,6.05677835 7.63248625,5.9683596 7.85227099,5.78280349 C8.07205572,5.59724737 8.20712845,5.33044158 8.22657,5.04346 L8.22653,5.04345 Z" id="Shape"></path>
                            <path d="M10.2461,5.42822 C10.2461,4.61767 10.84962,4.15039 11.9209,4.08398 L13.14063,4.01367 L13.14063,3.625 C13.14063,3.14941 12.82618,2.88086 12.21876,2.88086 C11.72267,2.88086 11.37892,3.06299 11.28028,3.38135 L10.41993,3.38135 C10.51075,2.60791 11.23829,2.11182 12.25977,2.11182 C13.38868,2.11182 14.0254,2.67382 14.0254,3.625 L14.0254,6.70166 L13.16993,6.70166 L13.16993,6.06885 L13.09962,6.06885 C12.8090686,6.53097633 12.2923736,6.80106323 11.74708,6.77585 C11.3648161,6.81561181 10.9835711,6.69181066 10.6975958,6.43505244 C10.4116205,6.17829423 10.2476061,5.81254331 10.2461,5.42822 Z M13.14064,5.04345 L13.14064,4.667 L12.041,4.7373 C11.42088,4.7788 11.13963,4.98974 11.13963,5.38671 C11.13963,5.79198 11.49119,6.02782 11.97463,6.02782 C12.2608193,6.05679853 12.5465161,5.96838901 12.7663165,5.78283079 C12.9861169,5.59727256 13.1211995,5.33045503 13.14064,5.04346 L13.14064,5.04345 Z" id="Shape"></path>
                            <path d="M15.19337,4.44824 C15.19337,3.02539 15.92482,2.12402 17.06251,2.12402 C17.6369868,2.09755013 18.1750375,2.40537287 18.44337,2.91402 L18.50978,2.91402 L18.50978,0.44092 L19.39845,0.44092 L19.39845,6.70166 L18.54689,6.70166 L18.54689,5.99023 L18.47658,5.99023 C18.1879642,6.49465698 17.6432845,6.79727648 17.06252,6.77587 C15.917,6.77588 15.19337,5.87451 15.19337,4.44824 Z M16.11137,4.44824 C16.11137,5.40332 16.56157,5.97803 17.3145,5.97803 C18.0635,5.97803 18.52641,5.39503 18.52641,4.45215 C18.52641,3.51367 18.05864,2.92236 17.3145,2.92236 C16.56642,2.92236 16.11134,3.501 16.11134,4.44824 L16.11137,4.44824 Z" id="Shape"></path>
                            <path d="M20.74024,0.86719 C20.7262167,0.631676113 20.8573051,0.4114428 21.0710127,0.311480102 C21.2847202,0.211517403 21.5377878,0.252059912 21.7095726,0.413780128 C21.8813574,0.575500343 21.9370864,0.825662626 21.8501925,1.04500914 C21.7632986,1.26435566 21.5513709,1.40848597 21.31544,1.40869 C21.1665221,1.41628359 21.020952,1.36279293 20.9123818,1.26058369 C20.8038116,1.15837446 20.7416402,1.01629484 20.74024,0.86719 Z M20.87208,2.19873 L21.75782,2.19873 L21.75782,6.70166 L20.87208,6.70166 L20.87208,2.19873 Z" id="Shape"></path>
                            <path d="M25.377,5.42822 C25.377,4.61767 25.98052,4.15039 27.0518,4.08398 L28.27153,4.01367 L28.27153,3.625 C28.27153,3.14941 27.95708,2.88086 27.34966,2.88086 C26.85357,2.88086 26.50982,3.06299 26.41118,3.38135 L25.55083,3.38135 C25.64165,2.60791 26.36919,2.11182 27.39067,2.11182 C28.51958,2.11182 29.15629,2.67382 29.15629,3.625 L29.15629,6.70166 L28.30082,6.70166 L28.30082,6.06885 L28.23051,6.06885 C27.9399586,6.53097633 27.4232636,6.80106323 26.87797,6.77585 C26.4957077,6.81560879 26.1144655,6.69180627 25.8284925,6.4350484 C25.5425194,6.17829052 25.3785064,5.81254138 25.377,5.42822 Z M28.27153,5.04345 L28.27153,4.667 L27.17192,4.73731 C26.5518,4.77881 26.27055,4.98975 26.27055,5.38672 C26.27055,5.79199 26.62211,6.02783 27.10555,6.02783 C27.3917296,6.05678833 27.6774093,5.96836825 27.8971944,5.78280999 C28.1169794,5.59725173 28.252051,5.33044337 28.27149,5.04346 L28.27153,5.04345 Z" id="Shape"></path>
                            <polygon id="Path" points="30.58937 0.44092 31.478 0.44092 31.478 6.70166 30.58933 6.70166"></polygon>
                            <polygon id="Path" points="32.978 0.44092 33.86667 0.44092 33.86667 6.70166 32.978 6.70166"></polygon>
                            <path d="M35.06886,5.42822 C35.06886,4.61767 35.67238,4.15039 36.74366,4.08398 L37.96339,4.01367 L37.96339,3.625 C37.96339,3.14941 37.64894,2.88086 37.04152,2.88086 C36.54543,2.88086 36.20168,3.06299 36.10304,3.38135 L35.24269,3.38135 C35.33351,2.60791 36.06105,2.11182 37.08253,2.11182 C38.21144,2.11182 38.84816,2.67382 38.84816,3.625 L38.84816,6.70166 L37.99269,6.70166 L37.99269,6.06885 L37.92238,6.06885 C37.6318286,6.53097633 37.1151336,6.80106323 36.56984,6.77585 C36.1875761,6.81561181 35.8063311,6.69181066 35.5203558,6.43505244 C35.2343805,6.17829423 35.0703661,5.81254331 35.06886,5.42822 L35.06886,5.42822 Z M37.96339,5.04345 L37.96339,4.667 L36.86378,4.73731 C36.24366,4.77881 35.96241,4.98975 35.96241,5.38672 C35.96241,5.79199 36.31397,6.02783 36.79741,6.02783 C37.0835961,6.05679986 37.3692864,5.96838505 37.5890804,5.78282559 C37.8088744,5.59726613 37.9439516,5.33045106 37.96339,5.04346 L37.96339,5.04345 Z" id="Shape"></path>
                        </g>
                    </g>
                </g>
                <g id="Group" transform="translate(33.000000, 16.000000)" fill="#FFFFFF">
                    <path d="M7.88377133,9.61212888 L3.39187133,9.61212888 L2.31314724,12.7973314 L0.410557041,12.7973314 L4.66518367,1.01245684 L6.64190816,1.01245684 L10.8965633,12.7973314 L8.96156541,12.7973314 L7.88377133,9.61212888 Z M3.85709908,8.14232082 L7.41767051,8.14232082 L5.66242837,2.97251724 L5.61321429,2.97251724 L3.85709908,8.14232082 Z" id="Shape"></path>
                    <path d="M20.0851531,8.50190816 C20.0851531,11.1718433 18.6561227,12.8872283 16.4996045,12.8872283 C15.3849191,12.945538 14.3349464,12.3616935 13.7963128,11.3840446 L13.7555066,11.3840446 L13.7555066,15.6396297 L11.991923,15.6396297 L11.991923,4.20507092 L13.6989759,4.20507092 L13.6989759,5.63409184 L13.731412,5.63409184 C14.293975,4.662572 15.34508,4.0789789 16.4671399,4.11516459 C18.6478286,4.11518357 20.0851531,5.8389101 20.0851531,8.50190816 Z M18.2724502,8.50190816 C18.2724502,6.76195408 17.3735103,5.61836724 16.0019406,5.61836724 C14.6544655,5.61836724 13.7481141,6.78605816 13.7481141,8.50190816 C13.7481141,10.2330557 14.6544655,11.3924051 16.0019406,11.3924051 C17.3735672,11.3924051 18.2724977,10.2571313 18.2724977,8.50190816 L18.2724502,8.50190816 Z" id="Shape"></path>
                    <path d="M29.5411653,8.50190816 C29.5411653,11.1718433 28.1125999,12.8872283 25.9560817,12.8872283 C24.8413963,12.945538 23.7914236,12.3616935 23.25279,11.3840446 L23.2120408,11.3840446 L23.2120408,15.6396297 L21.4484571,15.6396297 L21.4484571,4.20507092 L23.1554816,4.20507092 L23.1554816,5.63409184 L23.1879178,5.63409184 C23.7504807,4.662572 24.8015857,4.0789789 25.9236456,4.11516459 C28.1042584,4.11518357 29.5411653,5.8389101 29.5411653,8.50190816 Z M27.7289369,8.50190816 C27.7289369,6.76195408 26.8299876,5.61836724 25.4584179,5.61836724 C24.1109428,5.61836724 23.2045913,6.78605816 23.2045913,8.50190816 C23.2045913,10.2330557 24.1109428,11.3924051 25.4584179,11.3924051 C26.829997,11.3924051 27.7289369,10.2571313 27.7289369,8.50190816 L27.7289369,8.50190816 Z" id="Shape"></path>
                    <path d="M35.791088,9.51389051 C35.9217624,10.6825114 37.0570267,11.4498089 38.6083711,11.4498089 C40.0948622,11.4498089 41.1643148,10.6824735 41.1643148,9.62876449 C41.1643148,8.71407153 40.5193029,8.16638694 38.9920436,7.79104653 L37.4647653,7.42270959 C35.3008356,6.90003061 34.2962458,5.88802929 34.2962458,4.24584857 C34.2962458,2.21258388 36.068171,0.815989592 38.5842576,0.815989592 C41.07438,0.815989592 42.7814519,2.21258388 42.8389127,4.24584857 L41.0586269,4.24584857 C40.9520565,3.06981612 39.9799029,2.35994143 38.559214,2.35994143 C37.1385251,2.35994143 36.1663809,3.07816714 36.1663809,4.1235251 C36.1663809,4.95666276 36.7872983,5.44690561 38.306216,5.82219857 L39.6045719,6.14099878 C42.0224296,6.71279694 43.0270194,7.68447612 43.0270194,9.40821214 C43.0270194,11.6129195 41.2708472,12.9937607 38.4776587,12.9937607 C35.8642543,12.9937607 34.0997501,11.6453556 33.9857587,9.51385255 L35.791088,9.51389051 Z" id="Path"></path>
                    <path d="M46.8331678,2.17180622 L46.8331678,4.20507092 L48.4670069,4.20507092 L48.4670069,5.6016652 L46.8331678,5.6016652 L46.8331678,10.3386866 C46.8331678,11.0745159 47.1603095,11.4174107 47.8785257,11.4174107 C48.072489,11.4140285 48.2661385,11.4004075 48.4586654,11.3766046 L48.4586654,12.7648573 C48.1357545,12.825193 47.8075428,12.8525189 47.4791002,12.8464127 C45.7396206,12.8464127 45.0612426,12.1930592 45.0612426,10.5267839 L45.0612426,5.6016652 L43.8120058,5.6016652 L43.8120058,4.20507092 L45.061252,4.20507092 L45.061252,2.17180622 L46.8331678,2.17180622 Z" id="Path"></path>
                    <path d="M49.413206,8.50190816 C49.413206,5.79815143 51.0053376,4.09944 53.4880769,4.09944 C55.9791484,4.09944 57.5638684,5.79811347 57.5638684,8.50190816 C57.5638684,11.2126209 55.9874899,12.9039113 53.4880769,12.9039113 C50.9896224,12.9039113 49.413206,11.2126019 49.413206,8.50190816 Z M55.7669281,8.50190816 C55.7669281,6.64704214 54.9170979,5.552565 53.4880674,5.552565 C52.059037,5.552565 51.2101463,6.65538367 51.2101463,8.50190816 C51.2101463,10.3637207 52.059037,11.4498658 53.4880674,11.4498658 C54.9170979,11.4498658 55.7669281,10.3637112 55.7669281,8.50190816 L55.7669281,8.50190816 Z" id="Shape"></path>
                    <path d="M59.0179139,4.20507092 L60.6999517,4.20507092 L60.6999517,5.66744847 L60.7407579,5.66744847 C60.9753229,4.72604971 61.8379041,4.07814638 62.8073792,4.11516459 C63.0106165,4.11445497 63.213293,4.13652683 63.4116135,4.18096684 L63.4116135,5.83053061 C63.1550388,5.75212907 62.8873873,5.71613235 62.6192155,5.7239602 C62.1006617,5.70295927 61.598835,5.90966798 61.2455149,6.28980477 C60.8921948,6.66994156 60.7226846,7.18552353 60.7814976,7.70115918 L60.7814976,12.7972935 L59.0179139,12.7972935 L59.0179139,4.20507092 Z" id="Path"></path>
                    <path d="M71.5427838,10.2738144 C71.3055389,11.8335098 69.7866116,12.9038923 67.8432438,12.9038923 C65.3438308,12.9038923 63.7924769,11.2292755 63.7924769,8.54266684 C63.7924769,5.84725163 65.3521723,4.09942102 67.7691095,4.09942102 C70.1461895,4.09942102 71.6410221,5.7323302 71.6410221,8.33785806 L71.6410221,8.94209235 L65.5727437,8.94209235 L65.5727437,9.04866276 C65.5160871,9.68830501 65.7369566,10.3214621 66.17917,10.7870794 C66.6213834,11.2526967 67.2423191,11.5058967 67.8840309,11.4822735 C68.7398608,11.5624619 69.546741,11.0710215 69.8681764,10.2738049 L71.5427838,10.2738144 Z M65.5810676,7.7095102 L69.8765085,7.7095102 C69.9086071,7.13468126 69.699433,6.57252377 69.2993876,6.158492 C68.8993422,5.74446022 68.3447018,5.51609882 67.7691095,5.52843245 C67.1889696,5.5250058 66.6314986,5.75347287 66.220618,6.16304727 C65.8097373,6.57262167 65.5794963,7.1293623 65.5810676,7.7095102 Z" id="Shape"></path>
                    <polygon id="Path" points="72.8253866 5.32457265 73.7891988 1.01245684 75.5036633 1.01245684 74.3359723 5.32457265"></polygon>
                    <path d="M77.0772612,1.94290286 C77.0688865,1.52604259 77.3138105,1.14563497 77.696756,0.980724784 C78.0797015,0.815814601 78.5243758,0.899256238 78.8214859,1.19177658 C79.1185961,1.48429693 79.2089502,1.92761835 79.0500215,2.31308469 C78.8910929,2.69855103 78.5145442,2.9493674 78.0976041,2.94750296 C77.5388011,2.95093813 77.0825059,2.5016919 77.0772612,1.94290286 Z M77.2162678,4.20507092 L78.9798514,4.20507092 L78.9798514,12.7973219 L77.2162678,12.7973219 L77.2162678,4.20507092 Z" id="Shape"></path>
                    <path d="M84.0815467,4.10776255 C85.9850669,4.10776255 87.3482951,5.16054153 87.3890728,6.67949724 L85.731139,6.67949724 C85.6579252,5.92050337 85.0129133,5.45531357 84.0324655,5.45531357 C83.0769949,5.45531357 82.440334,5.89551673 82.440334,6.56554378 C82.440334,7.07989071 82.8647841,7.42277602 83.755373,7.64380286 L85.2010864,7.97928612 C86.932234,8.39539469 87.5855874,9.0320651 87.5855874,10.2905734 C87.5855874,11.8419367 86.1157794,12.9039778 84.0167219,12.9039778 C81.9908688,12.9039778 80.6276406,11.8660313 80.4969566,10.2979944 L82.2438572,10.2979944 C82.3671107,11.1227905 83.0278757,11.5639332 84.0982583,11.5639332 C85.1519578,11.5639332 85.8127228,11.131151 85.8127228,10.4453614 C85.8127228,9.91434092 85.486511,9.62890684 84.5885391,9.40000347 L83.0529383,9.02467255 C81.5015749,8.64842112 80.7175564,7.85605163 80.7175564,6.66381061 C80.71749,5.14478847 82.0807182,4.10776255 84.0815467,4.10776255 Z" id="Path"></path>
                    <path d="M91.3332692,2.17180622 L91.3332692,4.20507092 L92.9671084,4.20507092 L92.9671084,5.6016652 L91.3332692,5.6016652 L91.3332692,10.3386866 C91.3332692,11.0745159 91.6604109,11.4174107 92.3786271,11.4174107 C92.5725904,11.4140285 92.7662399,11.4004075 92.9587668,11.3766046 L92.9587668,12.7648573 C92.635856,12.825193 92.3076442,12.8525189 91.9792016,12.8464127 C90.239722,12.8464127 89.561344,12.1930592 89.561344,10.5267839 L89.561344,5.6016652 L88.3120978,5.6016652 L88.3120978,4.20507092 L89.561344,4.20507092 L89.561344,2.17180622 L91.3332692,2.17180622 Z" id="Path"></path>
                </g>
            </g>
        </g>
    </g>
</svg>