<?xml version="1.0" encoding="UTF-8"?>
<svg width="100px" height="100px" viewBox="0 0 100 100" version="1.1" xmlns="http://www.w3.org/2000/svg" xmlns:xlink="http://www.w3.org/1999/xlink">
    <!-- Generator: Sketch 57.1 (83088) - https://sketch.com -->
    <title>fb</title>
    <desc>Created with Sketch.</desc>
    <g id="Page-1" stroke="none" stroke-width="1" fill="none" fill-rule="evenodd">
        <g id="mottepank" transform="translate(-921.000000, -4010.000000)">
            <g id="Group-10" transform="translate(660.000000, 4009.000000)">
                <g id="fb" transform="translate(261.000000, 1.000000)">
                    <path d="M99.9131944,50 C99.9131944,77.5651042 77.5694444,99.9131944 50,99.9131944 C22.4305556,99.9131944 0.0868055556,77.5651042 0.0868055556,50 C0.0868055556,22.4305556 22.4305556,0.0868055556 50,0.0868055556 C77.5694444,0.0868055556 99.9131944,22.4305556 99.9131944,50 L99.9131944,50 Z" id="Stroke-551" fill="#395594"></path>
                    <path d="M66.6618924,39.1493056 L56.5099826,39.1493056 L56.5099826,34.7092014 C56.5099826,32.4392361 58.0203993,31.9010417 59.0794271,31.9010417 L65.1905382,31.9010417 L65.1905382,21.8923611 L54.9908854,21.8663194 C45.0169271,21.8663194 43.4891493,29.3272569 43.4891493,34.0972222 L43.4891493,39.1493056 L34.8085937,39.1493056 L34.8085937,47.8298611 L43.4891493,47.8298611 L43.4891493,78.2118056 L56.5099826,78.2118056 L56.5099826,47.8298611 L65.6028646,47.8298611 L66.6618924,39.1493056 L66.6618924,39.1493056 Z" id="Stroke-552" fill="#FFFFFF"></path>
                </g>
            </g>
        </g>
    </g>
</svg>