<?xml version="1.0" encoding="UTF-8"?>
<svg width="100px" height="100px" viewBox="0 0 100 100" version="1.1" xmlns="http://www.w3.org/2000/svg" xmlns:xlink="http://www.w3.org/1999/xlink">
    <!-- Generator: Sketch 57.1 (83088) - https://sketch.com -->
    <title>insta</title>
    <desc>Created with Sketch.</desc>
    <defs>
        <radialGradient cx="37.0480672%" cy="106.010435%" fx="37.0480672%" fy="106.010435%" r="114.752713%" gradientTransform="translate(0.370481,1.060104),rotate(-90.000000),scale(1.000000,0.998053),translate(-0.370481,-1.060104)" id="radialGradient-1">
            <stop stop-color="#FDF497" offset="0%"></stop>
            <stop stop-color="#FD5949" offset="34.3666801%"></stop>
            <stop stop-color="#D6249F" offset="70.4123119%"></stop>
            <stop stop-color="#285AEB" offset="100%"></stop>
        </radialGradient>
        <path d="M40.3355547,50.5 C40.3355547,45.437601 44.4385072,41.3325929 49.5011107,41.3325929 C54.5637142,41.3325929 58.6688881,45.437601 58.6688881,50.5 C58.6688881,55.562399 54.5637142,59.6674071 49.5011107,59.6674071 C44.4385072,59.6674071 40.3355547,55.562399 40.3355547,50.5 M35.3795791,50.5 C35.3795791,58.2990711 41.7017246,64.6209612 49.5011107,64.6209612 C57.3004968,64.6209612 63.6226423,58.2990711 63.6226423,50.5 C63.6226423,42.7009289 57.3004968,36.3790388 49.5011107,36.3790388 C41.7017246,36.3790388 35.3795791,42.7009289 35.3795791,50.5 M60.8814169,35.8192649 C60.8814169,37.6407512 62.3586575,39.1201535 64.1824387,39.1201535 C66.0039985,39.1201535 67.4834606,37.6407512 67.4834606,35.8192649 C67.4834606,33.9977787 66.00622,32.5205977 64.1824387,32.5205977 C62.3586575,32.5205977 60.8814169,33.9977787 60.8814169,35.8192649 M38.3895957,72.8842892 C35.7083485,72.7621163 34.2511006,72.31563 33.2825639,71.9380048 C31.9985864,71.4382068 31.0833636,70.8428918 30.1192698,69.8810582 C29.1573973,68.9192246 28.5598368,68.0040388 28.06224,66.7201131 C27.6845995,65.7516155 27.2380952,64.2944265 27.1159174,61.6132876 C26.9826326,58.7144588 26.9559756,57.8436995 26.9559756,50.5 C26.9559756,43.1563005 26.984854,42.2877625 27.1159174,39.3867124 C27.2380952,36.7055735 27.686821,35.2506058 28.06224,34.2798869 C28.5620582,32.9959612 29.1573973,32.0807754 30.1192698,31.1167205 C31.0811422,30.1548869 31.996365,29.5573506 33.2825639,29.0597738 C34.2511006,28.6821486 35.7083485,28.2356624 38.3895957,28.1134895 C41.2885415,27.98021 42.159336,27.9535541 49.5011107,27.9535541 C56.8451068,27.9535541 57.7136799,27.9824313 60.6148471,28.1134895 C63.2960943,28.2356624 64.7511208,28.68437 65.7218789,29.0597738 C67.0058565,29.5573506 67.9210792,30.1548869 68.8851731,31.1167205 C69.8470455,32.0785541 70.4423846,32.9959612 70.9422028,34.2798869 C71.3198433,35.2483845 71.7663476,36.7055735 71.8885254,39.3867124 C72.0218103,42.2877625 72.0484672,43.1563005 72.0484672,50.5 C72.0484672,57.8414782 72.0218103,58.7122375 71.8885254,61.6132876 C71.7663476,64.2944265 71.3176219,65.7516155 70.9422028,66.7201131 C70.4423846,68.0040388 69.8470455,68.9192246 68.8851731,69.8810582 C67.9233006,70.8428918 67.0058565,71.4382068 65.7218789,71.9380048 C64.7533422,72.31563 63.2960943,72.7621163 60.6148471,72.8842892 C57.7159013,73.0175687 56.8451068,73.0442246 49.5011107,73.0442246 C42.159336,73.0442246 41.2885415,73.0175687 38.3895957,72.8842892 M38.1630114,23.1665994 C35.2351872,23.2998788 33.2359142,23.7641357 31.4876611,24.4438611 C29.6794297,25.1457997 28.1466537,26.0876414 26.6160992,27.6159128 C25.0877661,29.1441842 24.1458863,30.6768982 23.4439194,32.4872779 C22.7641666,34.2354604 22.2998909,36.2346527 22.1666061,39.1623586 C22.0310998,42.0945073 22,43.0319063 22,50.5 C22,57.9680937 22.0310998,58.9054927 22.1666061,61.8376414 C22.2998909,64.7653473 22.7641666,66.7645396 23.4439194,68.5127221 C24.1458863,70.3208805 25.0855447,71.8558158 26.6160992,73.3840872 C28.1444323,74.9123586 29.6772083,75.851979 31.4876611,76.5561389 C33.2381356,77.2358643 35.2351872,77.7001212 38.1630114,77.8334006 C41.0974999,77.9666801 42.0327154,78 49.5011107,78 C56.9717275,78 57.9069429,77.9689015 60.83921,77.8334006 C63.7670342,77.7001212 65.7663072,77.2358643 67.5145604,76.5561389 C69.3227917,75.851979 70.8555677,74.9123586 72.3861222,73.3840872 C73.9144553,71.8558158 74.8541137,70.3208805 75.558302,68.5127221 C76.2380548,66.7645396 76.7045519,64.7653473 76.8356153,61.8376414 C76.9689002,58.9032714 77,57.9680937 77,50.5 C77,43.0319063 76.9689002,42.0945073 76.8356153,39.1623586 C76.7023305,36.2346527 76.2380548,34.2354604 75.558302,32.4872779 C74.8541137,30.6791195 73.9144553,29.1464055 72.3861222,27.6159128 C70.8577891,26.0876414 69.3227917,25.1457997 67.5167818,24.4438611 C65.7663072,23.7641357 63.7670342,23.2976575 60.8414314,23.1665994 C57.9091643,23.0333199 56.9717275,23 49.5033321,23 C42.0327154,23 41.0974999,23.0310985 38.1630114,23.1665994" id="path-2"></path>
    </defs>
    <g id="Page-1" stroke="none" stroke-width="1" fill="none" fill-rule="evenodd">
        <g id="mottepank" transform="translate(-660.000000, -4010.000000)">
            <g id="Group-10" transform="translate(660.000000, 4009.000000)">
                <g id="insta" transform="translate(0.000000, 1.000000)">
                    <path d="M99.8263889,49.9131944 C99.8263889,77.4782986 77.4826389,99.8263889 49.9131944,99.8263889 C22.34375,99.8263889 0,77.4782986 0,49.9131944 C0,22.34375 22.34375,0 49.9131944,0 C77.4826389,0 99.8263889,22.34375 99.8263889,49.9131944 L99.8263889,49.9131944 Z" id="Stroke-551" fill="url(#radialGradient-1)"></path>
                    <mask id="mask-3" fill="white">
                        <use xlink:href="#path-2"></use>
                    </mask>
                    <use id="Mask" fill="#FFFFFF" fill-rule="nonzero" xlink:href="#path-2"></use>
                </g>
            </g>
        </g>
    </g>
</svg>