<svg xmlns="http://www.w3.org/2000/svg" width="24" height="24" viewBox="0 0 24 24">
  <g fill="#00000F" fill-rule="evenodd">
    <path d="M12,23 C18.075,23 23,18.075 23,12 C23,5.925 18.075,1 12,1 C5.925,1 1,5.925 1,12 C1,18.075 5.925,23 12,23 M12,24 C5.373,24 0,18.627 0,12 C0,5.373 5.373,0 12,0 C18.627,0 24,5.373 24,12 C24,18.627 18.627,24 12,24"/>
    <path d="M11,13.5516 L13.777,11.9916 L11,10.3706 L11,13.5516 Z M10,14.4056 L10,9.4996 C10,9.1136 10.419,8.8736 10.752,9.0686 L15.035,11.5686 C15.369,11.7626 15.365,12.2466 15.028,12.4356 L10.745,14.8416 C10.412,15.0296 10,14.7886 10,14.4056 Z M19,9.7426 L19,14.2556 C19,15.7716 17.773,16.9996 16.258,16.9996 L7.741,16.9996 C6.227,16.9996 5,15.7716 5,14.2556 L5,9.7426 C5,8.2286 6.227,6.9996 7.741,6.9996 L16.258,6.9996 C17.772,6.9996 19,8.2276 19,9.7426 Z M18,9.7426 C18,8.7806 17.22,7.9996 16.258,7.9996 L7.741,7.9996 C6.78,7.9996 6,8.7806 6,9.7426 L6,14.2556 C6,15.2196 6.78,15.9996 7.741,15.9996 L16.258,15.9996 C17.22,15.9996 18,15.2196 18,14.2556 L18,9.7426 Z"/>
  </g>
</svg>
