<?xml version="1.0" encoding="UTF-8" standalone="no"?>
<svg
   xmlns:dc="http://purl.org/dc/elements/1.1/"
   xmlns:cc="http://creativecommons.org/ns#"
   xmlns:rdf="http://www.w3.org/1999/02/22-rdf-syntax-ns#"
   xmlns:svg="http://www.w3.org/2000/svg"
   xmlns="http://www.w3.org/2000/svg"
   id="svg8831"
   version="1.1"
   viewBox="0 0 84.765488 52.667381"
   height="52.667381mm"
   width="84.765488mm">
  <defs
     id="defs8825">
    <clipPath
       id="clipPath3316"
       clipPathUnits="userSpaceOnUse">
      <path
         id="path3314"
         d="M 0,0 H 1680 V 7090 H 0 Z" />
    </clipPath>
    <clipPath
       id="clipPath3300"
       clipPathUnits="userSpaceOnUse">
      <path
         id="path3298"
         d="m 405.1597,4381.935 c 2.7797,0.49 5.1693,1.246 7.1685,2.266 1.9993,1.02 3.6105,2.236 4.8337,3.649 1.2232,1.414 2.0555,2.984 2.497,4.71 0.4415,1.727 0.4977,3.524 0.1687,5.39 -0.4028,2.284 -1.219,4.074 -2.4485,5.369 -1.2296,1.295 -2.5879,2.263 -4.0751,2.904 -1.4872,0.64 -2.942,1.041 -4.3643,1.203 -1.4223,0.161 -2.5277,0.251 -3.3162,0.269 -2.6654,0.198 -4.8252,0.367 -6.4794,0.507 -1.6541,0.14 -2.9655,0.341 -3.9343,0.602 -0.9687,0.261 -1.649,0.612 -2.0409,1.053 -0.3919,0.442 -0.6584,1.062 -0.7994,1.862 -0.1544,0.876 -0.0916,1.633 0.1885,2.271 0.28,0.638 0.6816,1.2 1.2047,1.685 0.5231,0.485 1.133,0.867 1.8296,1.147 0.6967,0.28 1.4067,0.484 2.1302,0.611 1.1043,0.195 2.1397,0.279 3.1063,0.253 0.9665,-0.026 1.8518,-0.203 2.6558,-0.533 0.8041,-0.329 1.4956,-0.855 2.0745,-1.577 0.5789,-0.723 1.0139,-1.686 1.3049,-2.892 l 8.6821,1.531 c -0.4163,2.361 -1.2179,4.291 -2.4049,5.79 -1.1869,1.498 -2.6359,2.646 -4.3471,3.444 -1.7112,0.798 -3.5893,1.262 -5.6343,1.392 -2.045,0.13 -4.1337,0.01 -6.2662,-0.369 -1.8278,-0.322 -3.6119,-0.892 -5.3524,-1.709 -1.7406,-0.818 -3.2437,-1.868 -4.5094,-3.151 -1.2657,-1.283 -2.21,-2.775 -2.833,-4.475 -0.6229,-1.7 -0.7497,-3.597 -0.3804,-5.692 0.329,-1.866 0.9615,-3.393 1.8976,-4.583 0.9362,-1.189 2.0526,-2.121 3.3494,-2.796 1.2968,-0.674 2.7174,-1.16 4.2618,-1.457 1.5444,-0.297 3.1117,-0.501 4.702,-0.614 1.559,-0.157 3.0922,-0.279 4.5996,-0.366 1.5074,-0.088 2.8726,-0.259 4.0956,-0.515 1.2229,-0.256 2.2471,-0.664 3.0724,-1.225 0.8253,-0.561 1.3353,-1.394 1.5301,-2.498 0.1812,-1.029 0.0641,-1.923 -0.3515,-2.683 -0.4156,-0.761 -0.9897,-1.402 -1.7222,-1.923 -0.7325,-0.522 -1.544,-0.93 -2.4344,-1.225 -0.8904,-0.294 -1.7354,-0.512 -2.5351,-0.653 -1.1804,-0.208 -2.348,-0.267 -3.5027,-0.176 -1.1546,0.091 -2.1933,0.359 -3.1161,0.805 -0.9228,0.446 -1.7156,1.101 -2.3785,1.966 -0.6629,0.865 -1.1152,1.983 -1.3569,3.353 l -8.6821,-1.53 c 0.4051,-2.52 1.2448,-4.61 2.519,-6.27 1.2743,-1.66 2.8247,-2.938 4.6512,-3.833 1.8265,-0.895 3.8452,-1.432 6.0559,-1.612 2.2108,-0.179 4.4395,-0.071 6.6862,0.325 z m 25.8712,5.504 1.5973,9.646 15.2507,2.689 4.6858,-8.538 9.3104,1.642 -22.4418,38.094 -9.1962,-1.622 -8.231,-43.502 z m 13.3278,18.605 -10.567,-1.863 2.6733,15.902 0.1142,0.02 z m 30.5155,-11.816 c 3.0463,0.537 5.3821,1.43 7.0073,2.678 1.6253,1.249 2.7913,2.652 3.4982,4.21 0.7069,1.558 1.0527,3.16 1.0372,4.806 -0.0154,1.646 -0.1407,3.136 -0.3757,4.469 l -4.925,27.931 -8.9676,-1.582 4.8545,-27.531 c 0.1275,-0.723 0.2316,-1.48 0.3121,-2.271 0.0805,-0.791 0.0368,-1.545 -0.1313,-2.261 -0.1681,-0.717 -0.5389,-1.342 -1.1124,-1.875 -0.5735,-0.533 -1.4505,-0.904 -2.6309,-1.112 -1.0662,-0.188 -1.9628,-0.169 -2.6896,0.056 -0.7268,0.225 -1.3326,0.599 -1.8175,1.123 -0.4849,0.523 -0.8773,1.19 -1.1773,2 -0.3001,0.811 -0.5374,1.712 -0.7119,2.702 l -0.3223,1.828 -8.1109,-1.43 0.6244,-3.542 c 0.3962,-2.247 1.1144,-4.093 2.1546,-5.539 1.0402,-1.446 2.2776,-2.563 3.7122,-3.35 1.4345,-0.788 2.9934,-1.278 4.6767,-1.472 1.6832,-0.194 3.3816,-0.14 5.0952,0.162 z m 25.0716,5.363 1.5973,9.646 15.2507,2.689 4.6858,-8.538 9.3104,1.642 -22.4419,38.093 -9.1961,-1.621 -8.231,-43.502 z m 13.3278,18.605 -10.567,-1.863 2.6733,15.902 0.1142,0.02 z m 38.5121,-10.407 c 1.9801,0.35 3.869,1.105 5.6667,2.266 1.7977,1.161 3.3149,2.911 4.5517,5.249 l 1.7297,-4.466 5.7119,1.008 -3.8877,22.048 -17.1356,-3.022 1.1783,-6.683 9.0248,1.591 c 0.237,-2.902 -0.321,-5.249 -1.6742,-7.038 -1.3531,-1.79 -3.5148,-2.946 -6.485,-3.47 -2.0182,-0.356 -3.8005,-0.268 -5.3471,0.264 -1.5466,0.533 -2.8719,1.369 -3.9761,2.509 -1.1041,1.14 -1.9987,2.484 -2.6839,4.032 -0.6852,1.548 -1.1789,3.179 -1.481,4.893 -0.3156,1.789 -0.4212,3.557 -0.3168,5.303 0.1044,1.746 0.4787,3.353 1.1229,4.821 0.6441,1.468 1.6019,2.717 2.8732,3.746 1.2712,1.029 2.916,1.722 4.9342,2.078 2.1705,0.382 4.1181,0.137 5.8427,-0.737 1.7246,-0.874 3.0549,-2.406 3.9908,-4.597 l 8.5679,1.511 c -0.6381,2.282 -1.629,4.228 -2.9727,5.836 -1.3437,1.609 -2.9131,2.883 -4.7083,3.823 -1.7951,0.94 -3.7287,1.551 -5.8005,1.833 -2.0719,0.283 -4.155,0.239 -6.2494,-0.13 -3.1225,-0.55 -5.8334,-1.598 -8.1329,-3.142 -2.2995,-1.544 -4.1348,-3.438 -5.5059,-5.682 -1.3712,-2.244 -2.2837,-4.751 -2.7377,-7.521 -0.4539,-2.769 -0.4123,-5.677 0.1248,-8.724 0.5237,-2.97 1.4692,-5.66 2.8363,-8.069 1.3671,-2.409 3.0753,-4.415 5.1246,-6.016 2.0493,-1.602 4.4167,-2.726 7.1022,-3.371 2.6856,-0.646 5.5896,-0.693 8.7121,-0.143 z m 28.6701,5.998 1.5973,9.646 15.2507,2.689 4.6858,-8.538 9.3104,1.642 -22.4419,38.093 -9.1961,-1.621 -8.231,-43.502 z m 13.3278,18.605 -10.567,-1.863 2.6733,15.902 0.1142,0.02 z m -174.835,-108.951 c 3.3129,0.584 6.114,1.844 8.4035,3.779 l -1.4637,8.635 c -2.5853,-2.93 -5.3059,-4.646 -8.1618,-5.15 -4.4172,-0.779 -7.7655,1.733 -10.0449,7.534 l 9.9387,1.753 1.0455,4.425 -12.1663,-2.146 -0.3659,2.409 12.7946,2.256 1.0455,4.425 -13.937,-2.457 c 0.4129,5.452 2.6186,8.53 6.6169,9.235 2.3228,0.41 4.9681,-0.01 7.9358,-1.251 l 2.2253,7.754 c -4.0675,1.246 -7.7006,1.587 -10.8992,1.023 -4.5315,-0.799 -8.0462,-2.91 -10.5441,-6.335 -2.386,-3.169 -3.6297,-7.138 -3.7311,-11.907 l -2.9131,-0.513 -1.0455,-4.425 4.1697,0.735 c -0.0219,-0.074 0.003,-0.325 0.0749,-0.755 l 0.291,-1.654 -2.2848,-0.403 -1.0455,-4.425 4.3981,0.776 c 1.6793,-4.848 4.0967,-8.426 7.2524,-10.736 3.476,-2.567 7.613,-3.428 12.411,-2.582 z m 32.5029,6.674 c 3.1225,0.55 5.7433,1.552 7.8625,3.005 2.1191,1.454 3.7887,3.23 5.0086,5.33 1.2199,2.1 1.9891,4.474 2.3075,7.121 0.3185,2.648 0.2158,5.456 -0.3079,8.427 -0.5976,3.389 -1.5844,6.258 -2.9605,8.606 -1.3761,2.349 -3.0401,4.215 -4.992,5.598 -1.9519,1.384 -4.1345,2.295 -6.5479,2.733 -2.4135,0.438 -4.9339,0.426 -7.5614,-0.038 l -17.5926,-3.102 7.1911,-40.783 z m -1.9577,7.428 -7.9967,-1.41 -4.5322,25.704 6.3973,1.128 c 2.2086,0.389 4.1204,0.402 5.7353,0.039 1.6149,-0.363 2.9834,-1.054 4.1054,-2.073 1.1221,-1.019 2.0291,-2.322 2.721,-3.908 0.6919,-1.586 1.2191,-3.407 1.5817,-5.463 0.3961,-2.247 0.4463,-4.201 0.1504,-5.863 -0.2959,-1.662 -0.8343,-3.063 -1.615,-4.202 -0.7808,-1.139 -1.7435,-2.025 -2.8882,-2.659 -1.1447,-0.633 -2.3643,-1.064 -3.659,-1.293 z m 29.4614,-2.579 1.5973,9.646 15.2507,2.689 4.6858,-8.538 9.3104,1.642 -22.4418,38.094 -9.1962,-1.622 -8.2309,-43.502 z m 13.3278,18.605 -10.567,-1.863 2.6733,15.902 0.1142,0.02 z m 35.0279,-11.021 c 2.7798,0.49 5.1693,1.245 7.1686,2.265 1.9992,1.02 3.6104,2.237 4.8336,3.65 1.2232,1.413 2.0555,2.984 2.497,4.71 0.4415,1.727 0.4978,3.524 0.1688,5.39 -0.4029,2.284 -1.2191,4.074 -2.4486,5.369 -1.2295,1.295 -2.5879,2.263 -4.0751,2.903 -1.4872,0.641 -2.942,1.042 -4.3643,1.204 -1.4223,0.161 -2.5277,0.251 -3.3161,0.269 -2.6655,0.198 -4.8253,0.366 -6.4794,0.507 -1.6542,0.14 -2.9656,0.341 -3.9343,0.602 -0.9687,0.261 -1.6491,0.612 -2.041,1.053 -0.3919,0.442 -0.6584,1.062 -0.7994,1.862 -0.1544,0.876 -0.0916,1.633 0.1885,2.271 0.2801,0.638 0.6817,1.2 1.2047,1.685 0.5231,0.485 1.133,0.867 1.8296,1.147 0.6967,0.28 1.4068,0.484 2.1303,0.611 1.1043,0.195 2.1397,0.279 3.1062,0.253 0.9665,-0.026 1.8518,-0.203 2.6559,-0.533 0.8041,-0.329 1.4956,-0.855 2.0745,-1.577 0.5789,-0.723 1.0138,-1.687 1.3049,-2.892 l 8.682,1.531 c -0.4163,2.361 -1.2179,4.291 -2.4048,5.79 -1.187,1.498 -2.636,2.646 -4.3472,3.444 -1.7112,0.798 -3.5892,1.262 -5.6343,1.392 -2.045,0.13 -4.1337,0.01 -6.2661,-0.369 -1.8278,-0.322 -3.612,-0.892 -5.3525,-1.709 -1.7405,-0.818 -3.2436,-1.868 -4.5094,-3.151 -1.2657,-1.284 -2.21,-2.775 -2.8329,-4.475 -0.623,-1.7 -0.7498,-3.597 -0.3805,-5.692 0.329,-1.866 0.9616,-3.393 1.8977,-4.583 0.9361,-1.189 2.0526,-2.121 3.3494,-2.796 1.2968,-0.674 2.7174,-1.16 4.2617,-1.457 1.5444,-0.297 3.1117,-0.501 4.7021,-0.614 1.5589,-0.157 3.0921,-0.279 4.5995,-0.366 1.5075,-0.088 2.8727,-0.26 4.0956,-0.515 1.223,-0.256 2.2471,-0.664 3.0724,-1.225 0.8254,-0.561 1.3354,-1.394 1.5301,-2.498 0.1813,-1.029 0.0641,-1.923 -0.3515,-2.683 -0.4156,-0.761 -0.9896,-1.402 -1.7222,-1.923 -0.7325,-0.522 -1.544,-0.93 -2.4344,-1.225 -0.8904,-0.294 -1.7354,-0.512 -2.535,-0.653 -1.1805,-0.208 -2.3481,-0.267 -3.5027,-0.176 -1.1547,0.091 -2.1934,0.359 -3.1162,0.805 -0.9227,0.446 -1.7156,1.101 -2.3785,1.966 -0.6629,0.865 -1.1152,1.983 -1.3569,3.353 l -8.682,-1.53 c 0.405,-2.52 1.2447,-4.61 2.519,-6.27 1.2742,-1.66 2.8246,-2.938 4.6511,-3.833 1.8266,-0.895 3.8452,-1.432 6.056,-1.612 2.2107,-0.179 4.4394,-0.071 6.6861,0.325 z m 30.0981,6.25 -7.1912,40.783 -8.9676,-1.582 7.1911,-40.783 z" />
    </clipPath>
    <clipPath
       id="clipPath3306"
       clipPathUnits="userSpaceOnUse">
      <path
         id="path3304"
         d="M 0,0 H 1680 V 7090 H 0 Z" />
    </clipPath>
    <clipPath
       id="clipPath3288"
       clipPathUnits="userSpaceOnUse">
      <path
         id="path3286"
         d="M 0,0 H 1680 V 7090 H 0 Z" />
    </clipPath>
    <clipPath
       id="clipPath3272"
       clipPathUnits="userSpaceOnUse">
      <path
         id="path3270"
         d="m 400.1597,4374.935 c 2.7797,0.49 5.1693,1.246 7.1685,2.266 1.9993,1.02 3.6105,2.236 4.8337,3.649 1.2232,1.414 2.0555,2.984 2.497,4.71 0.4415,1.727 0.4977,3.524 0.1687,5.39 -0.4028,2.284 -1.219,4.074 -2.4485,5.369 -1.2296,1.295 -2.5879,2.263 -4.0751,2.904 -1.4872,0.64 -2.942,1.041 -4.3643,1.203 -1.4223,0.161 -2.5277,0.251 -3.3162,0.269 -2.6654,0.198 -4.8252,0.367 -6.4794,0.507 -1.6541,0.14 -2.9655,0.341 -3.9343,0.602 -0.9687,0.261 -1.649,0.612 -2.0409,1.053 -0.3919,0.442 -0.6584,1.062 -0.7994,1.862 -0.1544,0.876 -0.0916,1.633 0.1885,2.271 0.28,0.638 0.6816,1.2 1.2047,1.685 0.5231,0.485 1.133,0.867 1.8296,1.147 0.6967,0.28 1.4067,0.484 2.1302,0.611 1.1043,0.195 2.1397,0.279 3.1063,0.253 0.9665,-0.026 1.8518,-0.203 2.6558,-0.533 0.8041,-0.329 1.4956,-0.855 2.0745,-1.577 0.5789,-0.723 1.0139,-1.686 1.3049,-2.892 l 8.6821,1.531 c -0.4163,2.361 -1.2179,4.291 -2.4049,5.79 -1.1869,1.498 -2.6359,2.646 -4.3471,3.444 -1.7112,0.798 -3.5893,1.262 -5.6343,1.392 -2.045,0.13 -4.1337,0.01 -6.2662,-0.369 -1.8278,-0.322 -3.6119,-0.892 -5.3524,-1.709 -1.7406,-0.818 -3.2437,-1.868 -4.5094,-3.151 -1.2657,-1.283 -2.21,-2.775 -2.833,-4.475 -0.6229,-1.7 -0.7497,-3.597 -0.3804,-5.692 0.329,-1.866 0.9615,-3.393 1.8976,-4.583 0.9362,-1.189 2.0526,-2.121 3.3494,-2.796 1.2968,-0.674 2.7174,-1.16 4.2618,-1.457 1.5444,-0.297 3.1117,-0.501 4.702,-0.614 1.559,-0.157 3.0922,-0.279 4.5996,-0.366 1.5074,-0.088 2.8726,-0.259 4.0956,-0.515 1.2229,-0.256 2.2471,-0.664 3.0724,-1.225 0.8253,-0.561 1.3353,-1.394 1.5301,-2.498 0.1812,-1.029 0.0641,-1.923 -0.3515,-2.683 -0.4156,-0.761 -0.9897,-1.402 -1.7222,-1.923 -0.7325,-0.522 -1.544,-0.93 -2.4344,-1.225 -0.8904,-0.294 -1.7354,-0.512 -2.5351,-0.653 -1.1804,-0.208 -2.348,-0.267 -3.5027,-0.176 -1.1546,0.091 -2.1933,0.359 -3.1161,0.805 -0.9228,0.446 -1.7156,1.101 -2.3785,1.966 -0.6629,0.865 -1.1152,1.983 -1.3569,3.353 l -8.6821,-1.53 c 0.4051,-2.52 1.2448,-4.61 2.519,-6.27 1.2743,-1.66 2.8247,-2.938 4.6512,-3.833 1.8265,-0.895 3.8452,-1.432 6.0559,-1.612 2.2108,-0.179 4.4395,-0.071 6.6862,0.325 z m 25.8712,5.504 1.5973,9.646 15.2507,2.689 4.6858,-8.538 9.3104,1.642 -22.4418,38.094 -9.1962,-1.622 -8.231,-43.502 z m 13.3278,18.605 -10.567,-1.863 2.6733,15.902 0.1142,0.02 z m 30.5155,-11.816 c 3.0463,0.537 5.3821,1.43 7.0073,2.678 1.6253,1.249 2.7913,2.652 3.4982,4.21 0.7069,1.558 1.0527,3.16 1.0372,4.806 -0.0154,1.646 -0.1407,3.136 -0.3757,4.469 l -4.925,27.931 -8.9676,-1.582 4.8545,-27.531 c 0.1275,-0.723 0.2316,-1.48 0.3121,-2.271 0.0805,-0.791 0.0368,-1.545 -0.1313,-2.261 -0.1681,-0.717 -0.5389,-1.342 -1.1124,-1.875 -0.5735,-0.533 -1.4505,-0.904 -2.6309,-1.112 -1.0662,-0.188 -1.9628,-0.169 -2.6896,0.056 -0.7268,0.225 -1.3326,0.599 -1.8175,1.123 -0.4849,0.523 -0.8773,1.19 -1.1773,2 -0.3001,0.811 -0.5374,1.712 -0.7119,2.702 l -0.3223,1.828 -8.1109,-1.43 0.6244,-3.542 c 0.3962,-2.247 1.1144,-4.093 2.1546,-5.539 1.0402,-1.446 2.2776,-2.563 3.7122,-3.35 1.4345,-0.788 2.9934,-1.278 4.6767,-1.472 1.6832,-0.194 3.3816,-0.14 5.0952,0.162 z m 25.0716,5.363 1.5973,9.646 15.2507,2.689 4.6858,-8.538 9.3104,1.642 -22.4419,38.093 -9.1961,-1.621 -8.231,-43.502 z m 13.3278,18.605 -10.567,-1.863 2.6733,15.902 0.1142,0.02 z m 38.5121,-10.407 c 1.9801,0.35 3.869,1.105 5.6667,2.266 1.7977,1.161 3.3149,2.911 4.5517,5.249 l 1.7297,-4.466 5.7119,1.008 -3.8877,22.048 -17.1356,-3.022 1.1783,-6.683 9.0248,1.591 c 0.237,-2.902 -0.321,-5.249 -1.6742,-7.038 -1.3531,-1.79 -3.5148,-2.946 -6.485,-3.47 -2.0182,-0.356 -3.8005,-0.268 -5.3471,0.264 -1.5466,0.533 -2.8719,1.369 -3.9761,2.509 -1.1041,1.14 -1.9987,2.484 -2.6839,4.032 -0.6852,1.548 -1.1789,3.179 -1.481,4.893 -0.3156,1.789 -0.4212,3.557 -0.3168,5.303 0.1044,1.746 0.4787,3.353 1.1229,4.821 0.6441,1.468 1.6019,2.717 2.8732,3.746 1.2712,1.029 2.916,1.722 4.9342,2.078 2.1705,0.382 4.1181,0.137 5.8427,-0.737 1.7246,-0.874 3.0549,-2.406 3.9908,-4.597 l 8.5679,1.511 c -0.6381,2.282 -1.629,4.228 -2.9727,5.836 -1.3437,1.609 -2.9131,2.883 -4.7083,3.823 -1.7951,0.94 -3.7287,1.551 -5.8005,1.833 -2.0719,0.283 -4.155,0.239 -6.2494,-0.13 -3.1225,-0.55 -5.8334,-1.598 -8.1329,-3.142 -2.2995,-1.544 -4.1348,-3.438 -5.5059,-5.682 -1.3712,-2.244 -2.2837,-4.751 -2.7377,-7.521 -0.4539,-2.769 -0.4123,-5.677 0.1248,-8.724 0.5237,-2.97 1.4692,-5.66 2.8363,-8.069 1.3671,-2.409 3.0753,-4.415 5.1246,-6.016 2.0493,-1.602 4.4167,-2.726 7.1022,-3.371 2.6856,-0.646 5.5896,-0.693 8.7121,-0.143 z m 28.6701,5.998 1.5973,9.646 15.2507,2.689 4.6858,-8.538 9.3104,1.642 -22.4419,38.093 -9.1961,-1.621 -8.231,-43.502 z m 13.3278,18.605 -10.567,-1.863 2.6733,15.902 0.1142,0.02 z m -174.835,-108.951 c 3.3129,0.584 6.114,1.844 8.4035,3.779 l -1.4637,8.635 c -2.5853,-2.93 -5.3059,-4.646 -8.1618,-5.15 -4.4172,-0.779 -7.7655,1.733 -10.0449,7.534 l 9.9387,1.753 1.0455,4.425 -12.1663,-2.146 -0.3659,2.409 12.7946,2.256 1.0455,4.425 -13.937,-2.457 c 0.4129,5.452 2.6186,8.53 6.6169,9.235 2.3228,0.41 4.9681,-0.01 7.9358,-1.251 l 2.2253,7.754 c -4.0675,1.246 -7.7006,1.587 -10.8992,1.023 -4.5315,-0.799 -8.0462,-2.91 -10.5441,-6.335 -2.386,-3.169 -3.6297,-7.138 -3.7311,-11.907 l -2.9131,-0.513 -1.0455,-4.425 4.1697,0.735 c -0.0219,-0.074 0.003,-0.325 0.0749,-0.755 l 0.291,-1.654 -2.2848,-0.403 -1.0455,-4.425 4.3981,0.776 c 1.6793,-4.848 4.0967,-8.426 7.2524,-10.736 3.476,-2.567 7.613,-3.428 12.411,-2.582 z m 32.5029,6.674 c 3.1225,0.55 5.7433,1.552 7.8625,3.005 2.1191,1.454 3.7887,3.23 5.0086,5.33 1.2199,2.1 1.9891,4.474 2.3075,7.121 0.3185,2.648 0.2158,5.456 -0.3079,8.427 -0.5976,3.389 -1.5844,6.258 -2.9605,8.606 -1.3761,2.349 -3.0401,4.215 -4.992,5.598 -1.9519,1.384 -4.1345,2.295 -6.5479,2.733 -2.4135,0.438 -4.9339,0.426 -7.5614,-0.038 l -17.5926,-3.102 7.1911,-40.783 z m -1.9577,7.428 -7.9967,-1.41 -4.5322,25.704 6.3973,1.128 c 2.2086,0.389 4.1204,0.402 5.7353,0.039 1.6149,-0.363 2.9834,-1.054 4.1054,-2.073 1.1221,-1.019 2.0291,-2.322 2.721,-3.908 0.6919,-1.586 1.2191,-3.407 1.5817,-5.463 0.3961,-2.247 0.4463,-4.201 0.1504,-5.863 -0.2959,-1.662 -0.8343,-3.063 -1.615,-4.202 -0.7808,-1.139 -1.7435,-2.025 -2.8882,-2.659 -1.1447,-0.633 -2.3643,-1.064 -3.659,-1.293 z m 29.4614,-2.579 1.5973,9.646 15.2507,2.689 4.6858,-8.538 9.3104,1.642 -22.4418,38.094 -9.1962,-1.622 -8.2309,-43.502 z m 13.3278,18.605 -10.567,-1.863 2.6733,15.902 0.1142,0.02 z m 35.0279,-11.021 c 2.7798,0.49 5.1693,1.245 7.1686,2.265 1.9992,1.02 3.6104,2.237 4.8336,3.65 1.2232,1.413 2.0555,2.984 2.497,4.71 0.4415,1.727 0.4978,3.524 0.1688,5.39 -0.4029,2.284 -1.2191,4.074 -2.4486,5.369 -1.2295,1.295 -2.5879,2.263 -4.0751,2.903 -1.4872,0.641 -2.942,1.042 -4.3643,1.204 -1.4223,0.161 -2.5277,0.251 -3.3161,0.269 -2.6655,0.198 -4.8253,0.366 -6.4794,0.507 -1.6542,0.14 -2.9656,0.341 -3.9343,0.602 -0.9687,0.261 -1.6491,0.612 -2.041,1.053 -0.3919,0.442 -0.6584,1.062 -0.7994,1.862 -0.1544,0.876 -0.0916,1.633 0.1885,2.271 0.2801,0.638 0.6817,1.2 1.2047,1.685 0.5231,0.485 1.133,0.867 1.8296,1.147 0.6967,0.28 1.4068,0.484 2.1303,0.611 1.1043,0.195 2.1397,0.279 3.1062,0.253 0.9665,-0.026 1.8518,-0.203 2.6559,-0.533 0.8041,-0.329 1.4956,-0.855 2.0745,-1.577 0.5789,-0.723 1.0138,-1.687 1.3049,-2.892 l 8.682,1.531 c -0.4163,2.361 -1.2179,4.291 -2.4048,5.79 -1.187,1.498 -2.636,2.646 -4.3472,3.444 -1.7112,0.798 -3.5892,1.262 -5.6343,1.392 -2.045,0.13 -4.1337,0.01 -6.2661,-0.369 -1.8278,-0.322 -3.612,-0.892 -5.3525,-1.709 -1.7405,-0.818 -3.2436,-1.868 -4.5094,-3.151 -1.2657,-1.284 -2.21,-2.775 -2.8329,-4.475 -0.623,-1.7 -0.7498,-3.597 -0.3805,-5.692 0.329,-1.866 0.9616,-3.393 1.8977,-4.583 0.9361,-1.189 2.0526,-2.121 3.3494,-2.796 1.2968,-0.674 2.7174,-1.16 4.2617,-1.457 1.5444,-0.297 3.1117,-0.501 4.7021,-0.614 1.5589,-0.157 3.0921,-0.279 4.5995,-0.366 1.5075,-0.088 2.8727,-0.26 4.0956,-0.515 1.223,-0.256 2.2471,-0.664 3.0724,-1.225 0.8254,-0.561 1.3354,-1.394 1.5301,-2.498 0.1813,-1.029 0.0641,-1.923 -0.3515,-2.683 -0.4156,-0.761 -0.9896,-1.402 -1.7222,-1.923 -0.7325,-0.522 -1.544,-0.93 -2.4344,-1.225 -0.8904,-0.294 -1.7354,-0.512 -2.535,-0.653 -1.1805,-0.208 -2.3481,-0.267 -3.5027,-0.176 -1.1547,0.091 -2.1934,0.359 -3.1162,0.805 -0.9227,0.446 -1.7156,1.101 -2.3785,1.966 -0.6629,0.865 -1.1152,1.983 -1.3569,3.353 l -8.682,-1.53 c 0.405,-2.52 1.2447,-4.61 2.519,-6.27 1.2742,-1.66 2.8246,-2.938 4.6511,-3.833 1.8266,-0.895 3.8452,-1.432 6.056,-1.612 2.2107,-0.179 4.4394,-0.071 6.6861,0.325 z m 30.0981,6.25 -7.1912,40.783 -8.9676,-1.582 7.1911,-40.783 z" />
    </clipPath>
    <clipPath
       id="clipPath3278"
       clipPathUnits="userSpaceOnUse">
      <path
         id="path3276"
         d="M 0,0 H 1680 V 7090 H 0 Z" />
    </clipPath>
    <clipPath
       id="clipPath3260"
       clipPathUnits="userSpaceOnUse">
      <path
         id="path3258"
         d="M 0,0 H 1680 V 7090 H 0 Z" />
    </clipPath>
    <clipPath
       id="clipPath3244"
       clipPathUnits="userSpaceOnUse">
      <path
         id="path3242"
         d="m 395.1597,4368.935 c 2.7797,0.49 5.1693,1.246 7.1685,2.266 1.9993,1.02 3.6105,2.236 4.8337,3.649 1.2232,1.414 2.0555,2.984 2.497,4.71 0.4415,1.727 0.4977,3.524 0.1687,5.39 -0.4028,2.284 -1.219,4.074 -2.4485,5.369 -1.2296,1.295 -2.5879,2.263 -4.0751,2.904 -1.4872,0.64 -2.942,1.041 -4.3643,1.203 -1.4223,0.161 -2.5277,0.251 -3.3162,0.269 -2.6654,0.198 -4.8252,0.367 -6.4794,0.507 -1.6541,0.14 -2.9655,0.341 -3.9343,0.602 -0.9687,0.261 -1.649,0.612 -2.0409,1.053 -0.3919,0.442 -0.6584,1.062 -0.7994,1.862 -0.1544,0.876 -0.0916,1.633 0.1885,2.271 0.28,0.638 0.6816,1.2 1.2047,1.685 0.5231,0.485 1.133,0.867 1.8296,1.147 0.6967,0.28 1.4067,0.484 2.1302,0.611 1.1043,0.195 2.1397,0.279 3.1063,0.253 0.9665,-0.026 1.8518,-0.203 2.6558,-0.533 0.8041,-0.329 1.4956,-0.855 2.0745,-1.577 0.5789,-0.723 1.0139,-1.686 1.3049,-2.892 l 8.6821,1.531 c -0.4163,2.361 -1.2179,4.291 -2.4049,5.79 -1.1869,1.498 -2.6359,2.646 -4.3471,3.444 -1.7112,0.798 -3.5893,1.262 -5.6343,1.392 -2.045,0.13 -4.1337,0.01 -6.2662,-0.369 -1.8278,-0.322 -3.6119,-0.892 -5.3524,-1.709 -1.7406,-0.818 -3.2437,-1.868 -4.5094,-3.151 -1.2657,-1.283 -2.21,-2.775 -2.833,-4.475 -0.6229,-1.7 -0.7497,-3.597 -0.3804,-5.692 0.329,-1.866 0.9615,-3.393 1.8976,-4.583 0.9362,-1.189 2.0526,-2.121 3.3494,-2.796 1.2968,-0.674 2.7174,-1.16 4.2618,-1.457 1.5444,-0.297 3.1117,-0.501 4.702,-0.614 1.559,-0.157 3.0922,-0.279 4.5996,-0.366 1.5074,-0.088 2.8726,-0.259 4.0956,-0.515 1.2229,-0.256 2.2471,-0.664 3.0724,-1.225 0.8253,-0.561 1.3353,-1.394 1.5301,-2.498 0.1812,-1.029 0.0641,-1.923 -0.3515,-2.683 -0.4156,-0.761 -0.9897,-1.402 -1.7222,-1.923 -0.7325,-0.522 -1.544,-0.93 -2.4344,-1.225 -0.8904,-0.294 -1.7354,-0.512 -2.5351,-0.653 -1.1804,-0.208 -2.348,-0.267 -3.5027,-0.176 -1.1546,0.091 -2.1933,0.359 -3.1161,0.805 -0.9228,0.446 -1.7156,1.101 -2.3785,1.966 -0.6629,0.865 -1.1152,1.983 -1.3569,3.353 l -8.6821,-1.53 c 0.4051,-2.52 1.2448,-4.61 2.519,-6.27 1.2743,-1.66 2.8247,-2.938 4.6512,-3.833 1.8265,-0.895 3.8452,-1.432 6.0559,-1.612 2.2108,-0.179 4.4395,-0.071 6.6862,0.325 z m 25.8712,5.504 1.5973,9.646 15.2507,2.689 4.6858,-8.538 9.3104,1.642 -22.4418,38.094 -9.1962,-1.622 -8.231,-43.502 z m 13.3278,18.605 -10.567,-1.863 2.6733,15.902 0.1142,0.02 z m 30.5155,-11.816 c 3.0463,0.537 5.3821,1.43 7.0073,2.678 1.6253,1.249 2.7913,2.652 3.4982,4.21 0.7069,1.558 1.0527,3.16 1.0372,4.806 -0.0154,1.646 -0.1407,3.136 -0.3757,4.469 l -4.925,27.931 -8.9676,-1.582 4.8545,-27.531 c 0.1275,-0.723 0.2316,-1.48 0.3121,-2.271 0.0805,-0.791 0.0368,-1.545 -0.1313,-2.261 -0.1681,-0.717 -0.5389,-1.342 -1.1124,-1.875 -0.5735,-0.533 -1.4505,-0.904 -2.6309,-1.112 -1.0662,-0.188 -1.9628,-0.169 -2.6896,0.056 -0.7268,0.225 -1.3326,0.599 -1.8175,1.123 -0.4849,0.523 -0.8773,1.19 -1.1773,2 -0.3001,0.811 -0.5374,1.712 -0.7119,2.702 l -0.3223,1.828 -8.1109,-1.43 0.6244,-3.542 c 0.3962,-2.247 1.1144,-4.093 2.1546,-5.539 1.0402,-1.446 2.2776,-2.563 3.7122,-3.35 1.4345,-0.788 2.9934,-1.278 4.6767,-1.472 1.6832,-0.194 3.3816,-0.14 5.0952,0.162 z m 25.0716,5.363 1.5973,9.646 15.2507,2.689 4.6858,-8.538 9.3104,1.642 -22.4419,38.093 -9.1961,-1.621 -8.231,-43.502 z m 13.3278,18.605 -10.567,-1.863 2.6733,15.902 0.1142,0.02 z m 38.5121,-10.407 c 1.9801,0.35 3.869,1.105 5.6667,2.266 1.7977,1.161 3.3149,2.911 4.5517,5.249 l 1.7297,-4.466 5.7119,1.008 -3.8877,22.048 -17.1356,-3.022 1.1783,-6.683 9.0248,1.591 c 0.237,-2.902 -0.321,-5.249 -1.6742,-7.038 -1.3531,-1.79 -3.5148,-2.946 -6.485,-3.47 -2.0182,-0.356 -3.8005,-0.268 -5.3471,0.264 -1.5466,0.533 -2.8719,1.369 -3.9761,2.509 -1.1041,1.14 -1.9987,2.484 -2.6839,4.032 -0.6852,1.548 -1.1789,3.179 -1.481,4.893 -0.3156,1.789 -0.4212,3.557 -0.3168,5.303 0.1044,1.746 0.4787,3.353 1.1229,4.821 0.6441,1.468 1.6019,2.717 2.8732,3.746 1.2712,1.029 2.916,1.722 4.9342,2.078 2.1705,0.382 4.1181,0.137 5.8427,-0.737 1.7246,-0.874 3.0549,-2.406 3.9908,-4.597 l 8.5679,1.511 c -0.6381,2.282 -1.629,4.228 -2.9727,5.836 -1.3437,1.609 -2.9131,2.883 -4.7083,3.823 -1.7951,0.94 -3.7287,1.551 -5.8005,1.833 -2.0719,0.283 -4.155,0.239 -6.2494,-0.13 -3.1225,-0.55 -5.8334,-1.598 -8.1329,-3.142 -2.2995,-1.544 -4.1348,-3.438 -5.5059,-5.682 -1.3712,-2.244 -2.2837,-4.751 -2.7377,-7.521 -0.4539,-2.769 -0.4123,-5.677 0.1248,-8.724 0.5237,-2.97 1.4692,-5.66 2.8363,-8.069 1.3671,-2.409 3.0753,-4.415 5.1246,-6.016 2.0493,-1.602 4.4167,-2.726 7.1022,-3.371 2.6856,-0.646 5.5896,-0.693 8.7121,-0.143 z m 28.6701,5.998 1.5973,9.646 15.2507,2.689 4.6858,-8.538 9.3104,1.642 -22.4419,38.093 -9.1961,-1.621 -8.231,-43.502 z m 13.3278,18.605 -10.567,-1.863 2.6733,15.902 0.1142,0.02 z m -174.835,-108.951 c 3.3129,0.584 6.114,1.844 8.4035,3.779 l -1.4637,8.635 c -2.5853,-2.93 -5.3059,-4.646 -8.1618,-5.15 -4.4172,-0.779 -7.7655,1.733 -10.0449,7.534 l 9.9387,1.753 1.0455,4.425 -12.1663,-2.146 -0.3659,2.409 12.7946,2.256 1.0455,4.425 -13.937,-2.457 c 0.4129,5.452 2.6186,8.53 6.6169,9.235 2.3228,0.41 4.9681,-0.01 7.9358,-1.251 l 2.2253,7.754 c -4.0675,1.246 -7.7006,1.587 -10.8992,1.023 -4.5315,-0.799 -8.0462,-2.91 -10.5441,-6.335 -2.386,-3.169 -3.6297,-7.138 -3.7311,-11.907 l -2.9131,-0.513 -1.0455,-4.425 4.1697,0.735 c -0.0219,-0.074 0.003,-0.325 0.0749,-0.755 l 0.291,-1.654 -2.2848,-0.403 -1.0455,-4.425 4.3981,0.776 c 1.6793,-4.848 4.0967,-8.426 7.2524,-10.736 3.476,-2.567 7.613,-3.428 12.411,-2.582 z m 32.5029,6.674 c 3.1225,0.55 5.7433,1.552 7.8625,3.005 2.1191,1.454 3.7887,3.23 5.0086,5.33 1.2199,2.1 1.9891,4.474 2.3075,7.121 0.3185,2.648 0.2158,5.456 -0.3079,8.427 -0.5976,3.389 -1.5844,6.258 -2.9605,8.606 -1.3761,2.349 -3.0401,4.215 -4.992,5.598 -1.9519,1.384 -4.1345,2.295 -6.5479,2.733 -2.4135,0.438 -4.9339,0.426 -7.5614,-0.038 l -17.5926,-3.102 7.1911,-40.783 z m -1.9577,7.428 -7.9967,-1.41 -4.5322,25.704 6.3973,1.128 c 2.2086,0.389 4.1204,0.402 5.7353,0.039 1.6149,-0.363 2.9834,-1.054 4.1054,-2.073 1.1221,-1.019 2.0291,-2.322 2.721,-3.908 0.6919,-1.586 1.2191,-3.407 1.5817,-5.463 0.3961,-2.247 0.4463,-4.201 0.1504,-5.863 -0.2959,-1.662 -0.8343,-3.063 -1.615,-4.202 -0.7808,-1.139 -1.7435,-2.025 -2.8882,-2.659 -1.1447,-0.633 -2.3643,-1.064 -3.659,-1.293 z m 29.4614,-2.579 1.5973,9.646 15.2507,2.689 4.6858,-8.538 9.3104,1.642 -22.4418,38.094 -9.1962,-1.622 -8.2309,-43.502 z m 13.3278,18.605 -10.567,-1.863 2.6733,15.902 0.1142,0.02 z m 35.0279,-11.021 c 2.7798,0.49 5.1693,1.245 7.1686,2.265 1.9992,1.02 3.6104,2.237 4.8336,3.65 1.2232,1.413 2.0555,2.984 2.497,4.71 0.4415,1.727 0.4978,3.524 0.1688,5.39 -0.4029,2.284 -1.2191,4.074 -2.4486,5.369 -1.2295,1.295 -2.5879,2.263 -4.0751,2.903 -1.4872,0.641 -2.942,1.042 -4.3643,1.204 -1.4223,0.161 -2.5277,0.251 -3.3161,0.269 -2.6655,0.198 -4.8253,0.366 -6.4794,0.507 -1.6542,0.14 -2.9656,0.341 -3.9343,0.602 -0.9687,0.261 -1.6491,0.612 -2.041,1.053 -0.3919,0.442 -0.6584,1.062 -0.7994,1.862 -0.1544,0.876 -0.0916,1.633 0.1885,2.271 0.2801,0.638 0.6817,1.2 1.2047,1.685 0.5231,0.485 1.133,0.867 1.8296,1.147 0.6967,0.28 1.4068,0.484 2.1303,0.611 1.1043,0.195 2.1397,0.279 3.1062,0.253 0.9665,-0.026 1.8518,-0.203 2.6559,-0.533 0.8041,-0.329 1.4956,-0.855 2.0745,-1.577 0.5789,-0.723 1.0138,-1.687 1.3049,-2.892 l 8.682,1.531 c -0.4163,2.361 -1.2179,4.291 -2.4048,5.79 -1.187,1.498 -2.636,2.646 -4.3472,3.444 -1.7112,0.798 -3.5892,1.262 -5.6343,1.392 -2.045,0.13 -4.1337,0.01 -6.2661,-0.369 -1.8278,-0.322 -3.612,-0.892 -5.3525,-1.709 -1.7405,-0.818 -3.2436,-1.868 -4.5094,-3.151 -1.2657,-1.284 -2.21,-2.775 -2.8329,-4.475 -0.623,-1.7 -0.7498,-3.597 -0.3805,-5.692 0.329,-1.866 0.9616,-3.393 1.8977,-4.583 0.9361,-1.189 2.0526,-2.121 3.3494,-2.796 1.2968,-0.674 2.7174,-1.16 4.2617,-1.457 1.5444,-0.297 3.1117,-0.501 4.7021,-0.614 1.5589,-0.157 3.0921,-0.279 4.5995,-0.366 1.5075,-0.088 2.8727,-0.26 4.0956,-0.515 1.223,-0.256 2.2471,-0.664 3.0724,-1.225 0.8254,-0.561 1.3354,-1.394 1.5301,-2.498 0.1813,-1.029 0.0641,-1.923 -0.3515,-2.683 -0.4156,-0.761 -0.9896,-1.402 -1.7222,-1.923 -0.7325,-0.522 -1.544,-0.93 -2.4344,-1.225 -0.8904,-0.294 -1.7354,-0.512 -2.535,-0.653 -1.1805,-0.208 -2.3481,-0.267 -3.5027,-0.176 -1.1547,0.091 -2.1934,0.359 -3.1162,0.805 -0.9227,0.446 -1.7156,1.101 -2.3785,1.966 -0.6629,0.865 -1.1152,1.983 -1.3569,3.353 l -8.682,-1.53 c 0.405,-2.52 1.2447,-4.61 2.519,-6.27 1.2742,-1.66 2.8246,-2.938 4.6511,-3.833 1.8266,-0.895 3.8452,-1.432 6.056,-1.612 2.2107,-0.179 4.4394,-0.071 6.6861,0.325 z m 30.0981,6.25 -7.1912,40.783 -8.9676,-1.582 7.1911,-40.783 z" />
    </clipPath>
    <clipPath
       id="clipPath3250"
       clipPathUnits="userSpaceOnUse">
      <path
         id="path3248"
         d="M 0,0 H 1680 V 7090 H 0 Z" />
    </clipPath>
  </defs>
  <metadata
     id="metadata8828">
    <rdf:RDF>
      <cc:Work
         rdf:about="">
        <dc:format>image/svg+xml</dc:format>
        <dc:type
           rdf:resource="http://purl.org/dc/dcmitype/StillImage" />
        <dc:title></dc:title>
      </cc:Work>
    </rdf:RDF>
  </metadata>
  <g
     transform="translate(-56.647015,-44.636551)"
     id="layer1">
    <g
       id="g3238"
       transform="matrix(0.35277777,0,0,-0.35277777,-74.802644,1617.4698)">
      <g
         clip-path="url(#clipPath3244)"
         id="g3240">
        <g
           clip-path="url(#clipPath3250)"
           id="g3246">
          <path
             id="path3252"
             style="fill:#ff4747;fill-opacity:1;fill-rule:nonzero;stroke:none"
             d="m 363.9657,4412.506 234.0277,41.266 19.6789,-111.604 -234.0277,-41.266 z" />
        </g>
      </g>
    </g>
    <g
       id="g3254"
       transform="matrix(0.35277777,0,0,-0.35277777,-74.802644,1617.4698)">
      <g
         clip-path="url(#clipPath3260)"
         id="g3256">
        <g
           transform="matrix(0.9848078,0.1736482,0.1736482,-0.9848078,369.758,4408.451)"
           id="g3262">
          <path
             id="path3264"
             style="fill:none;stroke:#00000f;stroke-width:2;stroke-linecap:butt;stroke-linejoin:miter;stroke-miterlimit:10;stroke-dasharray:none;stroke-opacity:1"
             d="m 18.154,43.326 c 2.82267,0 5.307,-0.32867 7.453,-0.986 2.146,-0.65733 3.944,-1.57567 5.394,-2.755 1.45,-1.17933 2.54233,-2.581 3.277,-4.205 0.73467,-1.624 1.102,-3.38333 1.102,-5.278 0,-2.32 -0.493,-4.22433 -1.479,-5.713 -0.986,-1.48867 -2.15567,-2.67767 -3.509,-3.567 -1.35333,-0.88933 -2.71633,-1.537 -4.089,-1.943 -1.37267,-0.406 -2.44567,-0.68633 -3.219,-0.841 -2.59067,-0.65733 -4.68833,-1.19867 -6.293,-1.624 -1.60467,-0.42533 -2.86133,-0.85067 -3.77,-1.276 -0.90867,-0.42533 -1.51767,-0.88933 -1.827,-1.392 -0.30933,-0.50267 -0.464,-1.16 -0.464,-1.972 0,-0.88933 0.19333,-1.624 0.58,-2.204 0.38667,-0.58 0.87967,-1.063333 1.479,-1.45 0.59933,-0.386667 1.26633,-0.657333 2.001,-0.812 0.73467,-0.154667 1.46933,-0.232 2.204,-0.232 1.12133,0 2.15567,0.096667 3.103,0.29 0.94733,0.193333 1.78833,0.522 2.523,0.986 0.73467,0.464 1.32433,1.102 1.769,1.914 0.44467,0.812 0.70567,1.83667 0.783,3.074 h 8.816 c 0,-2.39733 -0.45433,-4.437 -1.363,-6.119 C 31.71633,5.539 30.48867,4.156667 28.942,3.074 27.39533,1.991333 25.62633,1.208333 23.635,0.725 21.64367,0.2416667 19.56533,0 17.4,0 15.544,0 13.688,0.2513333 11.832,0.754 9.976,1.256667 8.313333,2.03 6.844,3.074 5.374667,4.118 4.185667,5.423 3.277,6.989 2.368333,8.555 1.914,10.40133 1.914,12.528 c 0,1.89467 0.357667,3.509 1.073,4.843 0.715333,1.334 1.653,2.44567 2.813,3.335 1.16,0.88933 2.474667,1.61433 3.944,2.175 1.46933,0.56067 2.97733,1.03433 4.524,1.421 1.508,0.42533 2.99667,0.812 4.466,1.16 1.46933,0.348 2.784,0.754 3.944,1.218 1.16,0.464 2.09767,1.044 2.813,1.74 0.71533,0.696 1.073,1.60467 1.073,2.726 0,1.044 -0.27067,1.90433 -0.812,2.581 -0.54133,0.67667 -1.218,1.20833 -2.03,1.595 -0.812,0.38667 -1.682,0.64767 -2.61,0.783 -0.928,0.13533 -1.798,0.203 -2.61,0.203 -1.19867,0 -2.35867,-0.145 -3.48,-0.435 -1.12133,-0.29 -2.09767,-0.73467 -2.929,-1.334 C 11.26167,33.93967 10.59467,33.15667 10.092,32.19 9.589333,31.22333 9.338,30.044 9.338,28.652 H 0.522 c -0.0386667,2.552 0.4253333,4.756 1.392,6.612 0.966667,1.856 2.271667,3.38333 3.915,4.582 1.643333,1.19867 3.538,2.07833 5.684,2.639 2.146,0.56067 4.35967,0.841 6.641,0.841 z m 26.434,-0.928 3.248,-9.222 h 15.486 l 3.132,9.222 h 9.454 L 60.422,0.986 H 51.084 L 35.424,42.398 Z M 60.944,26.39 h -10.73 l 5.394,-15.196 h 0.116 z m 28,16.936 c 3.09333,0 5.54867,-0.47367 7.366,-1.421 1.81733,-0.94733 3.20933,-2.12667 4.176,-3.538 0.9667,-1.41133 1.5853,-2.929 1.856,-4.553 0.2707,-1.624 0.406,-3.11267 0.406,-4.466 V 0.986 h -9.106 v 27.956 c 0,0.73467 -0.029,1.49833 -0.087,2.291 -0.058,0.79267 -0.232,1.52733 -0.522,2.204 -0.29,0.67667 -0.76367,1.22767 -1.421,1.653 -0.65733,0.42533 -1.58533,0.638 -2.784,0.638 -1.08267,0 -1.96233,-0.174 -2.639,-0.522 C 85.51233,34.858 84.98067,34.38433 84.594,33.785 84.20733,33.18567 83.93667,32.46067 83.782,31.61 83.62733,30.75933 83.55,29.83133 83.55,28.826 V 26.97 h -8.236 v 3.596 c 0,2.28133 0.38667,4.22433 1.16,5.829 0.77333,1.60467 1.798,2.91933 3.074,3.944 1.276,1.02467 2.726,1.77867 4.35,2.262 1.624,0.48333 3.306,0.725 5.046,0.725 z m 25.622,-0.928 3.248,-9.222 H 133.3 l 3.132,9.222 h 9.454 L 130.4,0.986 h -9.338 l -15.66,41.412 z M 130.922,26.39 h -10.73 l 5.394,-15.196 h 0.116 z m 36.12,16.936 c 2.0107,0 4.002,-0.41567 5.974,-1.247 1.972,-0.83133 3.77,-2.291 5.394,-4.379 l 0.928,4.698 h 5.8 V 20.01 h -17.4 v 6.786 h 9.164 c -0.2707,2.9 -1.2277,5.11367 -2.871,6.641 -1.6433,1.52733 -3.973,2.291 -6.989,2.291 -2.0493,0 -3.7893,-0.39633 -5.22,-1.189 -1.4307,-0.79267 -2.5907,-1.84633 -3.48,-3.161 -0.8893,-1.31467 -1.537,-2.79367 -1.943,-4.437 -0.406,-1.64333 -0.609,-3.335 -0.609,-5.075 0,-1.81733 0.203,-3.57667 0.609,-5.278 0.406,-1.70133 1.0537,-3.219 1.943,-4.553 0.8893,-1.334 2.0493,-2.397333 3.48,-3.19 1.4307,-0.792667 3.1707,-1.189 5.22,-1.189 2.204,0 4.0793,0.58 5.626,1.74 1.5467,1.16 2.5907,2.9 3.132,5.22 h 8.7 C 184.268,12.25733 183.63,10.16933 182.586,8.352 181.542,6.534667 180.2177,5.007333 178.613,3.77 177.0083,2.532667 175.2103,1.595 173.219,0.957 171.2277,0.319 169.1687,0 167.042,0 c -3.1707,0 -6.0223,0.5606667 -8.555,1.682 -2.5327,1.121333 -4.669,2.668 -6.409,4.64 -1.74,1.972 -3.074,4.28233 -4.002,6.931 -0.928,2.64867 -1.392,5.51967 -1.392,8.613 0,3.016 0.464,5.829 1.392,8.439 0.928,2.61 2.262,4.88167 4.002,6.815 1.74,1.93333 3.8763,3.451 6.409,4.553 2.5327,1.102 5.3843,1.653 8.555,1.653 z m 29.276,-0.928 3.248,-9.222 h 15.486 l 3.132,9.222 h 9.454 L 212.152,0.986 h -9.338 l -15.66,41.412 z M 212.674,26.39 h -10.73 l 5.394,-15.196 h 0.116 z M 21.576,103.326 c 3.364,0 6.34133,-0.754 8.932,-2.262 l 0.058,-8.758 c -3.05467,2.436 -6.032,3.654 -8.932,3.654 -4.48533,0 -7.34667,-3.05467 -8.584,-9.164 H 23.142 L 24.94,82.62 H 12.586 l 0.058,-2.436 h 12.992 l 1.798,-4.176 H 13.282 c 1.35333,-5.29733 4.06,-7.946 8.12,-7.946 2.35867,0 4.89133,0.87 7.598,2.61 l 3.538,-7.25 c -3.78933,-1.93333 -7.308,-2.9 -10.556,-2.9 -4.60133,0 -8.42933,1.46933 -11.484,4.408 -2.9,2.70667 -4.814,6.39933 -5.742,11.078 H 1.798 L 0,80.184 H 4.234 C 4.19963,80.25274 4.180535,80.50479 4.176716,80.94015 L 4.176,82.62 h -2.32 l -1.798,4.176 h 4.466 c 0.812,5.06533 2.571333,9.00933 5.278,11.832 2.97733,3.132 6.902,4.698 11.774,4.698 z m 33.168,-0.928 c 3.17067,0 5.92567,-0.5317 8.265,-1.595 2.33933,-1.06333 4.292,-2.523 5.858,-4.379 1.566,-1.856 2.73567,-4.06 3.509,-6.612 0.77333,-2.552 1.16,-5.336 1.16,-8.352 0,-3.44133 -0.47367,-6.438 -1.421,-8.99 -0.94733,-2.552 -2.262,-4.67867 -3.944,-6.38 -1.682,-1.70133 -3.67333,-2.97733 -5.974,-3.828 -2.30067,-0.85067 -4.785,-1.276 -7.453,-1.276 H 36.88 v 41.412 z m -0.638,-7.656 h -8.12 v -26.1 h 6.496 c 2.24267,0 4.12767,0.319 5.655,0.957 1.52733,0.638 2.755,1.55633 3.683,2.755 0.928,1.19867 1.595,2.639 2.001,4.321 0.406,1.682 0.609,3.567 0.609,5.655 0,2.28133 -0.29,4.21467 -0.87,5.8 -0.58,1.58533 -1.35333,2.871 -2.32,3.857 -0.96667,0.986 -2.06867,1.69167 -3.306,2.117 -1.23733,0.42533 -2.51333,0.638 -3.828,0.638 z m 28.566,7.656 3.248,-9.222 h 15.486 l 3.132,9.222 h 9.454 L 98.506,60.986 h -9.338 l -15.66,41.412 z M 99.028,86.39 h -10.73 l 5.394,-15.196 h 0.116 z m 32.582,16.936 c 2.8227,0 5.307,-0.3287 7.453,-0.986 2.146,-0.6573 3.944,-1.5757 5.394,-2.755 1.45,-1.17933 2.5423,-2.581 3.277,-4.205 0.7347,-1.624 1.102,-3.38333 1.102,-5.278 0,-2.32 -0.493,-4.22433 -1.479,-5.713 -0.986,-1.48867 -2.1557,-2.67767 -3.509,-3.567 -1.3533,-0.88933 -2.7163,-1.537 -4.089,-1.943 -1.3727,-0.406 -2.4457,-0.68633 -3.219,-0.841 -2.5907,-0.65733 -4.6883,-1.19867 -6.293,-1.624 -1.6047,-0.42533 -2.8613,-0.85067 -3.77,-1.276 -0.9087,-0.42533 -1.5177,-0.88933 -1.827,-1.392 -0.3093,-0.50267 -0.464,-1.16 -0.464,-1.972 0,-0.88933 0.1933,-1.624 0.58,-2.204 0.3867,-0.58 0.8797,-1.06333 1.479,-1.45 0.5993,-0.38667 1.2663,-0.65733 2.001,-0.812 0.7347,-0.15467 1.4693,-0.232 2.204,-0.232 1.1213,0 2.1557,0.09667 3.103,0.29 0.9473,0.19333 1.7883,0.522 2.523,0.986 0.7347,0.464 1.3243,1.102 1.769,1.914 0.4447,0.812 0.7057,1.83667 0.783,3.074 h 8.816 c 0,-2.39733 -0.4543,-4.437 -1.363,-6.119 -0.9087,-1.682 -2.1363,-3.06433 -3.683,-4.147 -1.5467,-1.08267 -3.3157,-1.86567 -5.307,-2.349 C 135.0997,60.24167 133.0213,60 130.856,60 c -1.856,0 -3.712,0.25133 -5.568,0.754 -1.856,0.50267 -3.5187,1.276 -4.988,2.32 -1.4693,1.044 -2.6583,2.349 -3.567,3.915 -0.9087,1.566 -1.363,3.41233 -1.363,5.539 0,1.89467 0.3577,3.509 1.073,4.843 0.7153,1.334 1.653,2.44567 2.813,3.335 1.16,0.88933 2.4747,1.61433 3.944,2.175 1.4693,0.56067 2.9773,1.03433 4.524,1.421 1.508,0.42533 2.9967,0.812 4.466,1.16 1.4693,0.348 2.784,0.754 3.944,1.218 1.16,0.464 2.0977,1.044 2.813,1.74 0.7153,0.696 1.073,1.60467 1.073,2.726 0,1.044 -0.2707,1.90433 -0.812,2.581 -0.5413,0.67667 -1.218,1.20833 -2.03,1.595 -0.812,0.38667 -1.682,0.64767 -2.61,0.783 -0.928,0.13533 -1.798,0.203 -2.61,0.203 -1.1987,0 -2.3587,-0.145 -3.48,-0.435 -1.1213,-0.29 -2.0977,-0.73467 -2.929,-1.334 -0.8313,-0.59933 -1.4983,-1.38233 -2.001,-2.349 -0.5027,-0.96667 -0.754,-2.146 -0.754,-3.538 h -8.816 c -0.0387,2.552 0.4253,4.756 1.392,6.612 0.9667,1.856 2.2717,3.38333 3.915,4.582 1.6433,1.1987 3.538,2.0783 5.684,2.639 2.146,0.5607 4.3597,0.841 6.641,0.841 z m 30.726,-0.928 V 60.986 h -9.106 v 41.412 z" />
        </g>
      </g>
    </g>
    <g
       id="g3266"
       transform="matrix(0.35277777,0,0,-0.35277777,-74.802644,1617.4698)">
      <g
         clip-path="url(#clipPath3272)"
         id="g3268">
        <g
           clip-path="url(#clipPath3278)"
           id="g3274">
          <path
             id="path3280"
             style="fill:#ff4747;fill-opacity:1;fill-rule:nonzero;stroke:none"
             d="m 368.9657,4418.506 234.0277,41.266 19.6789,-111.604 -234.0277,-41.266 z" />
        </g>
      </g>
    </g>
    <g
       id="g3282"
       transform="matrix(0.35277777,0,0,-0.35277777,-74.802644,1617.4698)">
      <g
         clip-path="url(#clipPath3288)"
         id="g3284">
        <g
           transform="matrix(0.9848078,0.1736482,0.1736482,-0.9848078,374.758,4414.451)"
           id="g3290">
          <path
             id="path3292"
             style="fill:none;stroke:#00000f;stroke-width:2;stroke-linecap:butt;stroke-linejoin:miter;stroke-miterlimit:10;stroke-dasharray:none;stroke-opacity:1"
             d="m 18.154,43.326 c 2.82267,0 5.307,-0.32867 7.453,-0.986 2.146,-0.65733 3.944,-1.57567 5.394,-2.755 1.45,-1.17933 2.54233,-2.581 3.277,-4.205 0.73467,-1.624 1.102,-3.38333 1.102,-5.278 0,-2.32 -0.493,-4.22433 -1.479,-5.713 -0.986,-1.48867 -2.15567,-2.67767 -3.509,-3.567 -1.35333,-0.88933 -2.71633,-1.537 -4.089,-1.943 -1.37267,-0.406 -2.44567,-0.68633 -3.219,-0.841 -2.59067,-0.65733 -4.68833,-1.19867 -6.293,-1.624 -1.60467,-0.42533 -2.86133,-0.85067 -3.77,-1.276 -0.90867,-0.42533 -1.51767,-0.88933 -1.827,-1.392 -0.30933,-0.50267 -0.464,-1.16 -0.464,-1.972 0,-0.88933 0.19333,-1.624 0.58,-2.204 0.38667,-0.58 0.87967,-1.063333 1.479,-1.45 0.59933,-0.386667 1.26633,-0.657333 2.001,-0.812 0.73467,-0.154667 1.46933,-0.232 2.204,-0.232 1.12133,0 2.15567,0.096667 3.103,0.29 0.94733,0.193333 1.78833,0.522 2.523,0.986 0.73467,0.464 1.32433,1.102 1.769,1.914 0.44467,0.812 0.70567,1.83667 0.783,3.074 h 8.816 c 0,-2.39733 -0.45433,-4.437 -1.363,-6.119 C 31.71633,5.539 30.48867,4.156667 28.942,3.074 27.39533,1.991333 25.62633,1.208333 23.635,0.725 21.64367,0.2416667 19.56533,0 17.4,0 15.544,0 13.688,0.2513333 11.832,0.754 9.976,1.256667 8.313333,2.03 6.844,3.074 5.374667,4.118 4.185667,5.423 3.277,6.989 2.368333,8.555 1.914,10.40133 1.914,12.528 c 0,1.89467 0.357667,3.509 1.073,4.843 0.715333,1.334 1.653,2.44567 2.813,3.335 1.16,0.88933 2.474667,1.61433 3.944,2.175 1.46933,0.56067 2.97733,1.03433 4.524,1.421 1.508,0.42533 2.99667,0.812 4.466,1.16 1.46933,0.348 2.784,0.754 3.944,1.218 1.16,0.464 2.09767,1.044 2.813,1.74 0.71533,0.696 1.073,1.60467 1.073,2.726 0,1.044 -0.27067,1.90433 -0.812,2.581 -0.54133,0.67667 -1.218,1.20833 -2.03,1.595 -0.812,0.38667 -1.682,0.64767 -2.61,0.783 -0.928,0.13533 -1.798,0.203 -2.61,0.203 -1.19867,0 -2.35867,-0.145 -3.48,-0.435 -1.12133,-0.29 -2.09767,-0.73467 -2.929,-1.334 C 11.26167,33.93967 10.59467,33.15667 10.092,32.19 9.589333,31.22333 9.338,30.044 9.338,28.652 H 0.522 c -0.0386667,2.552 0.4253333,4.756 1.392,6.612 0.966667,1.856 2.271667,3.38333 3.915,4.582 1.643333,1.19867 3.538,2.07833 5.684,2.639 2.146,0.56067 4.35967,0.841 6.641,0.841 z m 26.434,-0.928 3.248,-9.222 h 15.486 l 3.132,9.222 h 9.454 L 60.422,0.986 H 51.084 L 35.424,42.398 Z M 60.944,26.39 h -10.73 l 5.394,-15.196 h 0.116 z m 28,16.936 c 3.09333,0 5.54867,-0.47367 7.366,-1.421 1.81733,-0.94733 3.20933,-2.12667 4.176,-3.538 0.9667,-1.41133 1.5853,-2.929 1.856,-4.553 0.2707,-1.624 0.406,-3.11267 0.406,-4.466 V 0.986 h -9.106 v 27.956 c 0,0.73467 -0.029,1.49833 -0.087,2.291 -0.058,0.79267 -0.232,1.52733 -0.522,2.204 -0.29,0.67667 -0.76367,1.22767 -1.421,1.653 -0.65733,0.42533 -1.58533,0.638 -2.784,0.638 -1.08267,0 -1.96233,-0.174 -2.639,-0.522 C 85.51233,34.858 84.98067,34.38433 84.594,33.785 84.20733,33.18567 83.93667,32.46067 83.782,31.61 83.62733,30.75933 83.55,29.83133 83.55,28.826 V 26.97 h -8.236 v 3.596 c 0,2.28133 0.38667,4.22433 1.16,5.829 0.77333,1.60467 1.798,2.91933 3.074,3.944 1.276,1.02467 2.726,1.77867 4.35,2.262 1.624,0.48333 3.306,0.725 5.046,0.725 z m 25.622,-0.928 3.248,-9.222 H 133.3 l 3.132,9.222 h 9.454 L 130.4,0.986 h -9.338 l -15.66,41.412 z M 130.922,26.39 h -10.73 l 5.394,-15.196 h 0.116 z m 36.12,16.936 c 2.0107,0 4.002,-0.41567 5.974,-1.247 1.972,-0.83133 3.77,-2.291 5.394,-4.379 l 0.928,4.698 h 5.8 V 20.01 h -17.4 v 6.786 h 9.164 c -0.2707,2.9 -1.2277,5.11367 -2.871,6.641 -1.6433,1.52733 -3.973,2.291 -6.989,2.291 -2.0493,0 -3.7893,-0.39633 -5.22,-1.189 -1.4307,-0.79267 -2.5907,-1.84633 -3.48,-3.161 -0.8893,-1.31467 -1.537,-2.79367 -1.943,-4.437 -0.406,-1.64333 -0.609,-3.335 -0.609,-5.075 0,-1.81733 0.203,-3.57667 0.609,-5.278 0.406,-1.70133 1.0537,-3.219 1.943,-4.553 0.8893,-1.334 2.0493,-2.397333 3.48,-3.19 1.4307,-0.792667 3.1707,-1.189 5.22,-1.189 2.204,0 4.0793,0.58 5.626,1.74 1.5467,1.16 2.5907,2.9 3.132,5.22 h 8.7 C 184.268,12.25733 183.63,10.16933 182.586,8.352 181.542,6.534667 180.2177,5.007333 178.613,3.77 177.0083,2.532667 175.2103,1.595 173.219,0.957 171.2277,0.319 169.1687,0 167.042,0 c -3.1707,0 -6.0223,0.5606667 -8.555,1.682 -2.5327,1.121333 -4.669,2.668 -6.409,4.64 -1.74,1.972 -3.074,4.28233 -4.002,6.931 -0.928,2.64867 -1.392,5.51967 -1.392,8.613 0,3.016 0.464,5.829 1.392,8.439 0.928,2.61 2.262,4.88167 4.002,6.815 1.74,1.93333 3.8763,3.451 6.409,4.553 2.5327,1.102 5.3843,1.653 8.555,1.653 z m 29.276,-0.928 3.248,-9.222 h 15.486 l 3.132,9.222 h 9.454 L 212.152,0.986 h -9.338 l -15.66,41.412 z M 212.674,26.39 h -10.73 l 5.394,-15.196 h 0.116 z M 21.576,103.326 c 3.364,0 6.34133,-0.754 8.932,-2.262 l 0.058,-8.758 c -3.05467,2.436 -6.032,3.654 -8.932,3.654 -4.48533,0 -7.34667,-3.05467 -8.584,-9.164 H 23.142 L 24.94,82.62 H 12.586 l 0.058,-2.436 h 12.992 l 1.798,-4.176 H 13.282 c 1.35333,-5.29733 4.06,-7.946 8.12,-7.946 2.35867,0 4.89133,0.87 7.598,2.61 l 3.538,-7.25 c -3.78933,-1.93333 -7.308,-2.9 -10.556,-2.9 -4.60133,0 -8.42933,1.46933 -11.484,4.408 -2.9,2.70667 -4.814,6.39933 -5.742,11.078 H 1.798 L 0,80.184 H 4.234 C 4.19963,80.25274 4.180535,80.50479 4.176716,80.94015 L 4.176,82.62 h -2.32 l -1.798,4.176 h 4.466 c 0.812,5.06533 2.571333,9.00933 5.278,11.832 2.97733,3.132 6.902,4.698 11.774,4.698 z m 33.168,-0.928 c 3.17067,0 5.92567,-0.5317 8.265,-1.595 2.33933,-1.06333 4.292,-2.523 5.858,-4.379 1.566,-1.856 2.73567,-4.06 3.509,-6.612 0.77333,-2.552 1.16,-5.336 1.16,-8.352 0,-3.44133 -0.47367,-6.438 -1.421,-8.99 -0.94733,-2.552 -2.262,-4.67867 -3.944,-6.38 -1.682,-1.70133 -3.67333,-2.97733 -5.974,-3.828 -2.30067,-0.85067 -4.785,-1.276 -7.453,-1.276 H 36.88 v 41.412 z m -0.638,-7.656 h -8.12 v -26.1 h 6.496 c 2.24267,0 4.12767,0.319 5.655,0.957 1.52733,0.638 2.755,1.55633 3.683,2.755 0.928,1.19867 1.595,2.639 2.001,4.321 0.406,1.682 0.609,3.567 0.609,5.655 0,2.28133 -0.29,4.21467 -0.87,5.8 -0.58,1.58533 -1.35333,2.871 -2.32,3.857 -0.96667,0.986 -2.06867,1.69167 -3.306,2.117 -1.23733,0.42533 -2.51333,0.638 -3.828,0.638 z m 28.566,7.656 3.248,-9.222 h 15.486 l 3.132,9.222 h 9.454 L 98.506,60.986 h -9.338 l -15.66,41.412 z M 99.028,86.39 h -10.73 l 5.394,-15.196 h 0.116 z m 32.582,16.936 c 2.8227,0 5.307,-0.3287 7.453,-0.986 2.146,-0.6573 3.944,-1.5757 5.394,-2.755 1.45,-1.17933 2.5423,-2.581 3.277,-4.205 0.7347,-1.624 1.102,-3.38333 1.102,-5.278 0,-2.32 -0.493,-4.22433 -1.479,-5.713 -0.986,-1.48867 -2.1557,-2.67767 -3.509,-3.567 -1.3533,-0.88933 -2.7163,-1.537 -4.089,-1.943 -1.3727,-0.406 -2.4457,-0.68633 -3.219,-0.841 -2.5907,-0.65733 -4.6883,-1.19867 -6.293,-1.624 -1.6047,-0.42533 -2.8613,-0.85067 -3.77,-1.276 -0.9087,-0.42533 -1.5177,-0.88933 -1.827,-1.392 -0.3093,-0.50267 -0.464,-1.16 -0.464,-1.972 0,-0.88933 0.1933,-1.624 0.58,-2.204 0.3867,-0.58 0.8797,-1.06333 1.479,-1.45 0.5993,-0.38667 1.2663,-0.65733 2.001,-0.812 0.7347,-0.15467 1.4693,-0.232 2.204,-0.232 1.1213,0 2.1557,0.09667 3.103,0.29 0.9473,0.19333 1.7883,0.522 2.523,0.986 0.7347,0.464 1.3243,1.102 1.769,1.914 0.4447,0.812 0.7057,1.83667 0.783,3.074 h 8.816 c 0,-2.39733 -0.4543,-4.437 -1.363,-6.119 -0.9087,-1.682 -2.1363,-3.06433 -3.683,-4.147 -1.5467,-1.08267 -3.3157,-1.86567 -5.307,-2.349 C 135.0997,60.24167 133.0213,60 130.856,60 c -1.856,0 -3.712,0.25133 -5.568,0.754 -1.856,0.50267 -3.5187,1.276 -4.988,2.32 -1.4693,1.044 -2.6583,2.349 -3.567,3.915 -0.9087,1.566 -1.363,3.41233 -1.363,5.539 0,1.89467 0.3577,3.509 1.073,4.843 0.7153,1.334 1.653,2.44567 2.813,3.335 1.16,0.88933 2.4747,1.61433 3.944,2.175 1.4693,0.56067 2.9773,1.03433 4.524,1.421 1.508,0.42533 2.9967,0.812 4.466,1.16 1.4693,0.348 2.784,0.754 3.944,1.218 1.16,0.464 2.0977,1.044 2.813,1.74 0.7153,0.696 1.073,1.60467 1.073,2.726 0,1.044 -0.2707,1.90433 -0.812,2.581 -0.5413,0.67667 -1.218,1.20833 -2.03,1.595 -0.812,0.38667 -1.682,0.64767 -2.61,0.783 -0.928,0.13533 -1.798,0.203 -2.61,0.203 -1.1987,0 -2.3587,-0.145 -3.48,-0.435 -1.1213,-0.29 -2.0977,-0.73467 -2.929,-1.334 -0.8313,-0.59933 -1.4983,-1.38233 -2.001,-2.349 -0.5027,-0.96667 -0.754,-2.146 -0.754,-3.538 h -8.816 c -0.0387,2.552 0.4253,4.756 1.392,6.612 0.9667,1.856 2.2717,3.38333 3.915,4.582 1.6433,1.1987 3.538,2.0783 5.684,2.639 2.146,0.5607 4.3597,0.841 6.641,0.841 z m 30.726,-0.928 V 60.986 h -9.106 v 41.412 z" />
        </g>
      </g>
    </g>
    <g
       id="g3294"
       transform="matrix(0.35277777,0,0,-0.35277777,-74.802644,1617.4698)">
      <g
         clip-path="url(#clipPath3300)"
         id="g3296">
        <g
           clip-path="url(#clipPath3306)"
           id="g3302">
          <path
             id="path3308"
             style="fill:#fffcef;fill-opacity:1;fill-rule:nonzero;stroke:none"
             d="m 373.9657,4425.506 234.0277,41.266 19.6789,-111.604 -234.0277,-41.266 z" />
        </g>
      </g>
    </g>
    <g
       id="g3310"
       transform="matrix(0.35277777,0,0,-0.35277777,-74.802644,1617.4698)">
      <g
         clip-path="url(#clipPath3316)"
         id="g3312">
        <g
           transform="matrix(0.9848078,0.1736482,0.1736482,-0.9848078,379.758,4421.451)"
           id="g3318">
          <path
             id="path3320"
             style="fill:none;stroke:#00000f;stroke-width:2;stroke-linecap:butt;stroke-linejoin:miter;stroke-miterlimit:10;stroke-dasharray:none;stroke-opacity:1"
             d="m 18.154,43.326 c 2.82267,0 5.307,-0.32867 7.453,-0.986 2.146,-0.65733 3.944,-1.57567 5.394,-2.755 1.45,-1.17933 2.54233,-2.581 3.277,-4.205 0.73467,-1.624 1.102,-3.38333 1.102,-5.278 0,-2.32 -0.493,-4.22433 -1.479,-5.713 -0.986,-1.48867 -2.15567,-2.67767 -3.509,-3.567 -1.35333,-0.88933 -2.71633,-1.537 -4.089,-1.943 -1.37267,-0.406 -2.44567,-0.68633 -3.219,-0.841 -2.59067,-0.65733 -4.68833,-1.19867 -6.293,-1.624 -1.60467,-0.42533 -2.86133,-0.85067 -3.77,-1.276 -0.90867,-0.42533 -1.51767,-0.88933 -1.827,-1.392 -0.30933,-0.50267 -0.464,-1.16 -0.464,-1.972 0,-0.88933 0.19333,-1.624 0.58,-2.204 0.38667,-0.58 0.87967,-1.063333 1.479,-1.45 0.59933,-0.386667 1.26633,-0.657333 2.001,-0.812 0.73467,-0.154667 1.46933,-0.232 2.204,-0.232 1.12133,0 2.15567,0.096667 3.103,0.29 0.94733,0.193333 1.78833,0.522 2.523,0.986 0.73467,0.464 1.32433,1.102 1.769,1.914 0.44467,0.812 0.70567,1.83667 0.783,3.074 h 8.816 c 0,-2.39733 -0.45433,-4.437 -1.363,-6.119 C 31.71633,5.539 30.48867,4.156667 28.942,3.074 27.39533,1.991333 25.62633,1.208333 23.635,0.725 21.64367,0.2416667 19.56533,0 17.4,0 15.544,0 13.688,0.2513333 11.832,0.754 9.976,1.256667 8.313333,2.03 6.844,3.074 5.374667,4.118 4.185667,5.423 3.277,6.989 2.368333,8.555 1.914,10.40133 1.914,12.528 c 0,1.89467 0.357667,3.509 1.073,4.843 0.715333,1.334 1.653,2.44567 2.813,3.335 1.16,0.88933 2.474667,1.61433 3.944,2.175 1.46933,0.56067 2.97733,1.03433 4.524,1.421 1.508,0.42533 2.99667,0.812 4.466,1.16 1.46933,0.348 2.784,0.754 3.944,1.218 1.16,0.464 2.09767,1.044 2.813,1.74 0.71533,0.696 1.073,1.60467 1.073,2.726 0,1.044 -0.27067,1.90433 -0.812,2.581 -0.54133,0.67667 -1.218,1.20833 -2.03,1.595 -0.812,0.38667 -1.682,0.64767 -2.61,0.783 -0.928,0.13533 -1.798,0.203 -2.61,0.203 -1.19867,0 -2.35867,-0.145 -3.48,-0.435 -1.12133,-0.29 -2.09767,-0.73467 -2.929,-1.334 C 11.26167,33.93967 10.59467,33.15667 10.092,32.19 9.589333,31.22333 9.338,30.044 9.338,28.652 H 0.522 c -0.0386667,2.552 0.4253333,4.756 1.392,6.612 0.966667,1.856 2.271667,3.38333 3.915,4.582 1.643333,1.19867 3.538,2.07833 5.684,2.639 2.146,0.56067 4.35967,0.841 6.641,0.841 z m 26.434,-0.928 3.248,-9.222 h 15.486 l 3.132,9.222 h 9.454 L 60.422,0.986 H 51.084 L 35.424,42.398 Z M 60.944,26.39 h -10.73 l 5.394,-15.196 h 0.116 z m 28,16.936 c 3.09333,0 5.54867,-0.47367 7.366,-1.421 1.81733,-0.94733 3.20933,-2.12667 4.176,-3.538 0.9667,-1.41133 1.5853,-2.929 1.856,-4.553 0.2707,-1.624 0.406,-3.11267 0.406,-4.466 V 0.986 h -9.106 v 27.956 c 0,0.73467 -0.029,1.49833 -0.087,2.291 -0.058,0.79267 -0.232,1.52733 -0.522,2.204 -0.29,0.67667 -0.76367,1.22767 -1.421,1.653 -0.65733,0.42533 -1.58533,0.638 -2.784,0.638 -1.08267,0 -1.96233,-0.174 -2.639,-0.522 C 85.51233,34.858 84.98067,34.38433 84.594,33.785 84.20733,33.18567 83.93667,32.46067 83.782,31.61 83.62733,30.75933 83.55,29.83133 83.55,28.826 V 26.97 h -8.236 v 3.596 c 0,2.28133 0.38667,4.22433 1.16,5.829 0.77333,1.60467 1.798,2.91933 3.074,3.944 1.276,1.02467 2.726,1.77867 4.35,2.262 1.624,0.48333 3.306,0.725 5.046,0.725 z m 25.622,-0.928 3.248,-9.222 H 133.3 l 3.132,9.222 h 9.454 L 130.4,0.986 h -9.338 l -15.66,41.412 z M 130.922,26.39 h -10.73 l 5.394,-15.196 h 0.116 z m 36.12,16.936 c 2.0107,0 4.002,-0.41567 5.974,-1.247 1.972,-0.83133 3.77,-2.291 5.394,-4.379 l 0.928,4.698 h 5.8 V 20.01 h -17.4 v 6.786 h 9.164 c -0.2707,2.9 -1.2277,5.11367 -2.871,6.641 -1.6433,1.52733 -3.973,2.291 -6.989,2.291 -2.0493,0 -3.7893,-0.39633 -5.22,-1.189 -1.4307,-0.79267 -2.5907,-1.84633 -3.48,-3.161 -0.8893,-1.31467 -1.537,-2.79367 -1.943,-4.437 -0.406,-1.64333 -0.609,-3.335 -0.609,-5.075 0,-1.81733 0.203,-3.57667 0.609,-5.278 0.406,-1.70133 1.0537,-3.219 1.943,-4.553 0.8893,-1.334 2.0493,-2.397333 3.48,-3.19 1.4307,-0.792667 3.1707,-1.189 5.22,-1.189 2.204,0 4.0793,0.58 5.626,1.74 1.5467,1.16 2.5907,2.9 3.132,5.22 h 8.7 C 184.268,12.25733 183.63,10.16933 182.586,8.352 181.542,6.534667 180.2177,5.007333 178.613,3.77 177.0083,2.532667 175.2103,1.595 173.219,0.957 171.2277,0.319 169.1687,0 167.042,0 c -3.1707,0 -6.0223,0.5606667 -8.555,1.682 -2.5327,1.121333 -4.669,2.668 -6.409,4.64 -1.74,1.972 -3.074,4.28233 -4.002,6.931 -0.928,2.64867 -1.392,5.51967 -1.392,8.613 0,3.016 0.464,5.829 1.392,8.439 0.928,2.61 2.262,4.88167 4.002,6.815 1.74,1.93333 3.8763,3.451 6.409,4.553 2.5327,1.102 5.3843,1.653 8.555,1.653 z m 29.276,-0.928 3.248,-9.222 h 15.486 l 3.132,9.222 h 9.454 L 212.152,0.986 h -9.338 l -15.66,41.412 z M 212.674,26.39 h -10.73 l 5.394,-15.196 h 0.116 z M 21.576,103.326 c 3.364,0 6.34133,-0.754 8.932,-2.262 l 0.058,-8.758 c -3.05467,2.436 -6.032,3.654 -8.932,3.654 -4.48533,0 -7.34667,-3.05467 -8.584,-9.164 H 23.142 L 24.94,82.62 H 12.586 l 0.058,-2.436 h 12.992 l 1.798,-4.176 H 13.282 c 1.35333,-5.29733 4.06,-7.946 8.12,-7.946 2.35867,0 4.89133,0.87 7.598,2.61 l 3.538,-7.25 c -3.78933,-1.93333 -7.308,-2.9 -10.556,-2.9 -4.60133,0 -8.42933,1.46933 -11.484,4.408 -2.9,2.70667 -4.814,6.39933 -5.742,11.078 H 1.798 L 0,80.184 H 4.234 C 4.19963,80.25274 4.180535,80.50479 4.176716,80.94015 L 4.176,82.62 h -2.32 l -1.798,4.176 h 4.466 c 0.812,5.06533 2.571333,9.00933 5.278,11.832 2.97733,3.132 6.902,4.698 11.774,4.698 z m 33.168,-0.928 c 3.17067,0 5.92567,-0.5317 8.265,-1.595 2.33933,-1.06333 4.292,-2.523 5.858,-4.379 1.566,-1.856 2.73567,-4.06 3.509,-6.612 0.77333,-2.552 1.16,-5.336 1.16,-8.352 0,-3.44133 -0.47367,-6.438 -1.421,-8.99 -0.94733,-2.552 -2.262,-4.67867 -3.944,-6.38 -1.682,-1.70133 -3.67333,-2.97733 -5.974,-3.828 -2.30067,-0.85067 -4.785,-1.276 -7.453,-1.276 H 36.88 v 41.412 z m -0.638,-7.656 h -8.12 v -26.1 h 6.496 c 2.24267,0 4.12767,0.319 5.655,0.957 1.52733,0.638 2.755,1.55633 3.683,2.755 0.928,1.19867 1.595,2.639 2.001,4.321 0.406,1.682 0.609,3.567 0.609,5.655 0,2.28133 -0.29,4.21467 -0.87,5.8 -0.58,1.58533 -1.35333,2.871 -2.32,3.857 -0.96667,0.986 -2.06867,1.69167 -3.306,2.117 -1.23733,0.42533 -2.51333,0.638 -3.828,0.638 z m 28.566,7.656 3.248,-9.222 h 15.486 l 3.132,9.222 h 9.454 L 98.506,60.986 h -9.338 l -15.66,41.412 z M 99.028,86.39 h -10.73 l 5.394,-15.196 h 0.116 z m 32.582,16.936 c 2.8227,0 5.307,-0.3287 7.453,-0.986 2.146,-0.6573 3.944,-1.5757 5.394,-2.755 1.45,-1.17933 2.5423,-2.581 3.277,-4.205 0.7347,-1.624 1.102,-3.38333 1.102,-5.278 0,-2.32 -0.493,-4.22433 -1.479,-5.713 -0.986,-1.48867 -2.1557,-2.67767 -3.509,-3.567 -1.3533,-0.88933 -2.7163,-1.537 -4.089,-1.943 -1.3727,-0.406 -2.4457,-0.68633 -3.219,-0.841 -2.5907,-0.65733 -4.6883,-1.19867 -6.293,-1.624 -1.6047,-0.42533 -2.8613,-0.85067 -3.77,-1.276 -0.9087,-0.42533 -1.5177,-0.88933 -1.827,-1.392 -0.3093,-0.50267 -0.464,-1.16 -0.464,-1.972 0,-0.88933 0.1933,-1.624 0.58,-2.204 0.3867,-0.58 0.8797,-1.06333 1.479,-1.45 0.5993,-0.38667 1.2663,-0.65733 2.001,-0.812 0.7347,-0.15467 1.4693,-0.232 2.204,-0.232 1.1213,0 2.1557,0.09667 3.103,0.29 0.9473,0.19333 1.7883,0.522 2.523,0.986 0.7347,0.464 1.3243,1.102 1.769,1.914 0.4447,0.812 0.7057,1.83667 0.783,3.074 h 8.816 c 0,-2.39733 -0.4543,-4.437 -1.363,-6.119 -0.9087,-1.682 -2.1363,-3.06433 -3.683,-4.147 -1.5467,-1.08267 -3.3157,-1.86567 -5.307,-2.349 C 135.0997,60.24167 133.0213,60 130.856,60 c -1.856,0 -3.712,0.25133 -5.568,0.754 -1.856,0.50267 -3.5187,1.276 -4.988,2.32 -1.4693,1.044 -2.6583,2.349 -3.567,3.915 -0.9087,1.566 -1.363,3.41233 -1.363,5.539 0,1.89467 0.3577,3.509 1.073,4.843 0.7153,1.334 1.653,2.44567 2.813,3.335 1.16,0.88933 2.4747,1.61433 3.944,2.175 1.4693,0.56067 2.9773,1.03433 4.524,1.421 1.508,0.42533 2.9967,0.812 4.466,1.16 1.4693,0.348 2.784,0.754 3.944,1.218 1.16,0.464 2.0977,1.044 2.813,1.74 0.7153,0.696 1.073,1.60467 1.073,2.726 0,1.044 -0.2707,1.90433 -0.812,2.581 -0.5413,0.67667 -1.218,1.20833 -2.03,1.595 -0.812,0.38667 -1.682,0.64767 -2.61,0.783 -0.928,0.13533 -1.798,0.203 -2.61,0.203 -1.1987,0 -2.3587,-0.145 -3.48,-0.435 -1.1213,-0.29 -2.0977,-0.73467 -2.929,-1.334 -0.8313,-0.59933 -1.4983,-1.38233 -2.001,-2.349 -0.5027,-0.96667 -0.754,-2.146 -0.754,-3.538 h -8.816 c -0.0387,2.552 0.4253,4.756 1.392,6.612 0.9667,1.856 2.2717,3.38333 3.915,4.582 1.6433,1.1987 3.538,2.0783 5.684,2.639 2.146,0.5607 4.3597,0.841 6.641,0.841 z m 30.726,-0.928 V 60.986 h -9.106 v 41.412 z" />
        </g>
      </g>
    </g>
  </g>
</svg>
